<mxfile host="app.diagrams.net" modified="2021-02-23T15:54:21.389Z" agent="5.0 (Windows NT 10.0; Win64; x64) AppleWebKit/537.36 (KHTML, like Gecko) Chrome/88.0.4324.182 Safari/537.36" etag="a8wg1a6FTlqbIwhZLC3U" version="14.2.7" type="github">
  <diagram id="1tGM-mNeWj_CG0N2Zrfr" name="Page-1">
    <mxGraphModel dx="1900" dy="1057" grid="1" gridSize="10" guides="1" tooltips="1" connect="1" arrows="1" fold="1" page="1" pageScale="1" pageWidth="1654" pageHeight="1169" math="0" shadow="0">
      <root>
        <mxCell id="0" />
        <mxCell id="1" parent="0" />
        <mxCell id="mvVqa1zRDEvd16IM3_gt-12" style="edgeStyle=orthogonalEdgeStyle;rounded=0;orthogonalLoop=1;jettySize=auto;html=1;exitX=1;exitY=0.5;exitDx=0;exitDy=0;entryX=0;entryY=0.5;entryDx=0;entryDy=0;" edge="1" parent="1" source="mvVqa1zRDEvd16IM3_gt-1" target="mvVqa1zRDEvd16IM3_gt-2">
          <mxGeometry relative="1" as="geometry" />
        </mxCell>
        <mxCell id="mvVqa1zRDEvd16IM3_gt-1" value="" style="shape=image;verticalLabelPosition=bottom;labelBackgroundColor=#ffffff;verticalAlign=top;aspect=fixed;imageAspect=0;image=data:image/svg+xml,PHN2ZyB4bWxuczpjYz0iaHR0cDovL2NyZWF0aXZlY29tbW9ucy5vcmcvbnMjIiB4bWxuczpkYz0iaHR0cDovL3B1cmwub3JnL2RjL2VsZW1lbnRzLzEuMS8iIHhtbG5zOmlua3NjYXBlPSJodHRwOi8vd3d3Lmlua3NjYXBlLm9yZy9uYW1lc3BhY2VzL2lua3NjYXBlIiB4bWxuczpyZGY9Imh0dHA6Ly93d3cudzMub3JnLzE5OTkvMDIvMjItcmRmLXN5bnRheC1ucyMiIHhtbG5zOnNvZGlwb2RpPSJodHRwOi8vc29kaXBvZGkuc291cmNlZm9yZ2UubmV0L0RURC9zb2RpcG9kaS0wLmR0ZCIgeG1sbnM6c3ZnPSJodHRwOi8vd3d3LnczLm9yZy8yMDAwL3N2ZyIgeG1sbnM9Imh0dHA6Ly93d3cudzMub3JnLzIwMDAvc3ZnIiB4bWxuczp4bGluaz0iaHR0cDovL3d3dy53My5vcmcvMTk5OS94bGluayIgdmVyc2lvbj0iMS4xIiBpZD0ic3ZnNzY2MjIiIGlua3NjYXBlOnZlcnNpb249IjAuOTIuMyAoMjQwNTU0NiwgMjAxOC0wMy0xMSkiIHNvZGlwb2RpOmRvY25hbWU9ImRhdGFfY29ubmVjdGlvbnMuc3ZnIiB4PSIwcHgiIHk9IjBweCIgdmlld0JveD0iMCAwIDE4LjE2IDI0LjA0IiBzdHlsZT0iZW5hYmxlLWJhY2tncm91bmQ6bmV3IDAgMCAxOC4xNiAyNC4wNDsiIHhtbDpzcGFjZT0icHJlc2VydmUiPiYjeGE7PHNvZGlwb2RpOm5hbWVkdmlldyBib3JkZXJjb2xvcj0iIzY2NjY2NiIgYm9yZGVyb3BhY2l0eT0iMSIgZml0LW1hcmdpbi1ib3R0b209IjAiIGZpdC1tYXJnaW4tbGVmdD0iMCIgZml0LW1hcmdpbi1yaWdodD0iMCIgZml0LW1hcmdpbi10b3A9IjAiIGdyaWR0b2xlcmFuY2U9IjEwIiBndWlkZXRvbGVyYW5jZT0iMTAiIGlkPSJuYW1lZHZpZXc3NjYyNCIgaW5rc2NhcGU6Y3VycmVudC1sYXllcj0ic3ZnNzY2MjIiIGlua3NjYXBlOmN4PSIxMy42MDI3NzEiIGlua3NjYXBlOmN5PSIxMi40OTI5OTMiIGlua3NjYXBlOnBhZ2VvcGFjaXR5PSIwIiBpbmtzY2FwZTpwYWdlc2hhZG93PSIyIiBpbmtzY2FwZTp3aW5kb3ctaGVpZ2h0PSIxMDE3IiBpbmtzY2FwZTp3aW5kb3ctbWF4aW1pemVkPSIxIiBpbmtzY2FwZTp3aW5kb3ctd2lkdGg9IjE5MjAiIGlua3NjYXBlOndpbmRvdy14PSItOCIgaW5rc2NhcGU6d2luZG93LXk9Ii04IiBpbmtzY2FwZTp6b29tPSIxOS4xMjI1MTEiIG9iamVjdHRvbGVyYW5jZT0iMTAiIHBhZ2Vjb2xvcj0iI2ZmZmZmZiIgc2hvd2dyaWQ9ImZhbHNlIj4mI3hhOwk8L3NvZGlwb2RpOm5hbWVkdmlldz4mI3hhOzxnIGlkPSJnNzY2MjAiIHRyYW5zZm9ybT0idHJhbnNsYXRlKDAsLTAuMDAxODYzOCkiPiYjeGE7CTx0aXRsZSBpZD0idGl0bGU3NjU3MCI+UGFnZS0xPC90aXRsZT4mI3hhOwk8ZyBpZD0iZ3JvdXA0NTY5LTEiPiYjeGE7CQk8dGl0bGUgaWQ9InRpdGxlNzY1NzIiPkRhdGEgQ29ubmVjdGlvbnM8L3RpdGxlPiYjeGE7CQk8ZyBpZD0ic2hhcGU0NTcwLTIiPiYjeGE7CQkJPHRpdGxlIGlkPSJ0aXRsZTc2NTc0Ij5TaGVldC40NTcwPC90aXRsZT4mI3hhOwkJCTxwYXRoIGlkPSJwYXRoNzY1NzYiIGlua3NjYXBlOmNvbm5lY3Rvci1jdXJ2YXR1cmU9IjAiIHN0eWxlPSJmaWxsOiMwMEJDRjI7IiBkPSJNMCwzLjMyYzAsMTcuNDUsMCwxNy40NSwwLDE3LjQ1ICAgICBjMCwxLjgsNC4xMywzLjI3LDkuMTgsMy4yN2MwLTIwLjcyLDAtMjAuNzIsMC0yMC43MkwwLDMuMzJ6Ii8+JiN4YTsJCTwvZz4mI3hhOwkJPGcgaWQ9InNoYXBlNDU3MS00IiB0cmFuc2Zvcm09InRyYW5zbGF0ZSg4Ljk4NDU3KSI+JiN4YTsJCQk8dGl0bGUgaWQ9InRpdGxlNzY1NzkiPlNoZWV0LjQ1NzE8L3RpdGxlPiYjeGE7CQkJPHBhdGggaWQ9InBhdGg3NjU4MSIgaW5rc2NhcGU6Y29ubmVjdG9yLWN1cnZhdHVyZT0iMCIgc3R5bGU9ImZpbGw6IzI5QzdGNDsiIGQ9Ik0wLDI0LjA0YzAuMTIsMCwwLjEyLDAsMC4xMiwwICAgICBjNS4wMSwwLDkuMDYtMS40Nyw5LjA2LTMuMjdjMC0xNy40NSwwLTE3LjQ1LDAtMTcuNDVDMCwzLjMyLDAsMy4zMiwwLDMuMzJWMjQuMDR6Ii8+JiN4YTsJCTwvZz4mI3hhOwkJPGcgaWQ9InNoYXBlNDU3Mi02IiB0cmFuc2Zvcm09InRyYW5zbGF0ZSgwLC0xNy4zOTgyKSI+JiN4YTsJCQk8dGl0bGUgaWQ9InRpdGxlNzY1ODQiPlNoZWV0LjQ1NzI8L3RpdGxlPiYjeGE7CQkJPHBhdGggaWQ9InBhdGg3NjU4NiIgaW5rc2NhcGU6Y29ubmVjdG9yLWN1cnZhdHVyZT0iMCIgc3R5bGU9ImZpbGw6I0ZGRkZGRjsiIGQ9Ik0wLDIwLjcyYzAtMS44Myw0LjA4LTMuMzIsOS4wOC0zLjMyICAgICBjNS4wMiwwLDkuMDgsMS40OSw5LjA4LDMuMzJjMCwxLjg1LTQuMDYsMy4zMi05LjA4LDMuMzJDNC4wOCwyNC4wNCwwLDIyLjU3LDAsMjAuNzJ6Ii8+JiN4YTsJCTwvZz4mI3hhOwkJPGcgaWQ9InNoYXBlNDU3My04IiB0cmFuc2Zvcm09InRyYW5zbGF0ZSgxLjk1MzE3LC0xOC43NjY2KSI+JiN4YTsJCQk8dGl0bGUgaWQ9InRpdGxlNzY1ODkiPlNoZWV0LjQ1NzM8L3RpdGxlPiYjeGE7CQkJPHBhdGggaWQ9InBhdGg3NjU5MSIgaW5rc2NhcGU6Y29ubmVjdG9yLWN1cnZhdHVyZT0iMCIgc3R5bGU9ImZpbGw6Izg1QjM1MTsiIGQ9Ik0wLDIxLjg5YzAtMS4xOCwzLjItMi4xNSw3LjEzLTIuMTUgICAgIGMzLjk0LDAsNy4xMywwLjk3LDcuMTMsMi4xNWMwLDEuMi0zLjE5LDIuMTUtNy4xMywyLjE1QzMuMiwyNC4wNCwwLDIzLjA5LDAsMjEuODl6Ii8+JiN4YTsJCTwvZz4mI3hhOwkJPGcgaWQ9InNoYXBlNDU3NC0xMCIgdHJhbnNmb3JtPSJ0cmFuc2xhdGUoMS45NTMxNywtMTkuNTQ4NikiPiYjeGE7CQkJPHRpdGxlIGlkPSJ0aXRsZTc2NTk0Ij5TaGVldC40NTc0PC90aXRsZT4mI3hhOwkJCTxwYXRoIGlkPSJwYXRoNzY1OTYiIGlua3NjYXBlOmNvbm5lY3Rvci1jdXJ2YXR1cmU9IjAiIHN0eWxlPSJmaWxsOiNCQUM4NEE7IiBkPSJNMTIuNzYsMjQuMDRjMC45Mi0wLjM5LDEuNS0wLjgxLDEuNS0xLjMxICAgICBjMC0xLjIzLTMuMi0yLjItNy4xMy0yLjJTMCwyMS41LDAsMjIuNzNjMCwwLjUsMC41OSwwLjkyLDEuNTEsMS4zMWMxLjMxLTAuNSwzLjMxLTAuODUsNS42Mi0wLjg1ICAgICBDOS40MSwyMy4xOSwxMS40NSwyMy41NCwxMi43NiwyNC4wNHoiLz4mI3hhOwkJPC9nPiYjeGE7CQk8ZyBpZD0ic2hhcGU0NTc1LTEyIiB0cmFuc2Zvcm09InRyYW5zbGF0ZSgyLjUzOTEyLC02LjA2MDA2KSI+JiN4YTsJCQk8dGl0bGUgaWQ9InRpdGxlNzY1OTkiPlNoZWV0LjQ1NzU8L3RpdGxlPiYjeGE7CQkJPHBhdGggaWQ9InBhdGg3NjYwMSIgaW5rc2NhcGU6Y29ubmVjdG9yLWN1cnZhdHVyZT0iMCIgc3R5bGU9ImZpbGw6I0ZGRkZGRjsiIGQ9Ik0xMi4zNSwyMy40MmMtMC41LDAuNDMtMS4xMiwwLjYyLTEuOTcsMC42MiAgICAgYy0yLjgyLDAtMi44MiwwLTIuODIsMGMwLTcuNDIsMC03LjQyLDAtNy40MmMyLjY3LDAsMi42NywwLDIuNjcsMGMwLjg1LDAsMS40NiwwLjEyLDEuOTMsMC40N2MwLjQzLDAuMjcsMC42MiwwLjcsMC42MiwxLjI1ICAgICBjMCwwLjQzLTAuMTYsMC43OC0wLjQ2LDEuMTRjLTAuMjcsMC4yMy0wLjU5LDAuNDItMC45NywwLjU1bDAsMGMwLjU0LDAuMDcsMC45NywwLjI2LDEuMjcsMC42MmMwLjMyLDAuMzIsMC40NywwLjcxLDAuNDcsMS4xNyAgICAgQzEzLjA5LDIyLjQ4LDEyLjgyLDIzLjAzLDEyLjM1LDIzLjQyeiBNNS40NywyMi45OWMtMC43LDAuNzEtMS42NywxLjA1LTIuODMsMS4wNWMtMi42NCwwLTIuNjQsMC0yLjY0LDBjMC03LjQyLDAtNy40MiwwLTcuNDIgICAgIGMyLjY0LDAsMi42NCwwLDIuNjQsMGMyLjYsMCwzLjksMS4xNywzLjksMy42QzYuNTQsMjEuMzksNi4yLDIyLjI5LDUuNDcsMjIuOTl6Ii8+JiN4YTsJCTwvZz4mI3hhOwkJPGcgaWQ9InNoYXBlNDU3Ni0xNCIgdHJhbnNmb3JtPSJ0cmFuc2xhdGUoNC4xMDE2NSwtNy40Mjg0NikiPiYjeGE7CQkJPHRpdGxlIGlkPSJ0aXRsZTc2NjA0Ij5TaGVldC40NTc2PC90aXRsZT4mI3hhOwkJCTxwYXRoIGlkPSJwYXRoNzY2MDYiIGlua3NjYXBlOmNvbm5lY3Rvci1jdXJ2YXR1cmU9IjAiIHN0eWxlPSJmaWxsOiMwMEJDRjI7IiBkPSJNMC44NywxOS4zNWMtMC44NywwLTAuODcsMC0wLjg3LDAgICAgIGMwLDQuNjksMCw0LjY5LDAsNC42OWMwLjg3LDAsMC44NywwLDAuODcsMGMwLjc4LDAsMS4zOS0wLjIzLDEuOC0wLjY0YzAuNDYtMC40MywwLjY1LTEuMDIsMC42NS0xLjc1YzAtMC43LTAuMTktMS4yNS0wLjYxLTEuNjcgICAgIEMyLjI2LDE5LjYsMS42NSwxOS4zNSwwLjg3LDE5LjM1eiIvPiYjeGE7CQk8L2c+JiN4YTsJCTxnIGlkPSJzaGFwZTQ1NzctMTYiIHRyYW5zZm9ybT0idHJhbnNsYXRlKDExLjcxOSwtMTAuMzYwNykiPiYjeGE7CQkJPHRpdGxlIGlkPSJ0aXRsZTc2NjA5Ij5TaGVldC40NTc3PC90aXRsZT4mI3hhOwkJCTxwYXRoIGlkPSJwYXRoNzY2MTEiIGlua3NjYXBlOmNvbm5lY3Rvci1jdXJ2YXR1cmU9IjAiIHN0eWxlPSJmaWxsOiMyOUM3RjQ7IiBkPSJNMS42MiwyMy44MWMwLjIxLTAuMTksMC4zMy0wLjQzLDAuMzMtMC42OSAgICAgYzAtMC41NS0wLjQxLTAuODMtMS4yOC0wLjgzYy0wLjY3LDAtMC42NywwLTAuNjcsMGMwLDEuNzUsMCwxLjc1LDAsMS43NWMwLjc5LDAsMC43OSwwLDAuNzksMEMxLjEyLDI0LjA0LDEuNDIsMjMuOTcsMS42MiwyMy44MSAgICAgeiIvPiYjeGE7CQk8L2c+JiN4YTsJCTxnIGlkPSJzaGFwZTQ1NzgtMTgiIHRyYW5zZm9ybT0idHJhbnNsYXRlKDExLjcxOSwtNy4yMzI5NykiPiYjeGE7CQkJPHRpdGxlIGlkPSJ0aXRsZTc2NjE0Ij5TaGVldC40NTc4PC90aXRsZT4mI3hhOwkJCTxwYXRoIGlkPSJwYXRoNzY2MTYiIGlua3NjYXBlOmNvbm5lY3Rvci1jdXJ2YXR1cmU9IjAiIHN0eWxlPSJmaWxsOiMyOUM3RjQ7IiBkPSJNMS44MSwyMi4zM2MtMC4yLTAuMTUtMC41LTAuMjQtMC44OC0wLjI0ICAgICBjLTAuOTMsMC0wLjkzLDAtMC45MywwYzAsMS45NSwwLDEuOTUsMCwxLjk1YzAuOTMsMCwwLjkzLDAsMC45MywwYzAuMzgsMCwwLjY4LTAuMDcsMC44OC0wLjI2YzAuMjMtMC4yLDAuMzQtMC40MywwLjM0LTAuNzUgICAgIEMyLjE1LDIyLjc2LDIuMDQsMjIuNTMsMS44MSwyMi4zM3oiLz4mI3hhOwkJPC9nPiYjeGE7CTwvZz4mI3hhOzwvZz4mI3hhOzwvc3ZnPg==;" vertex="1" parent="1">
          <mxGeometry x="80" y="220.71" width="30" height="39.29" as="geometry" />
        </mxCell>
        <mxCell id="mvVqa1zRDEvd16IM3_gt-2" value="" style="shape=image;verticalLabelPosition=bottom;labelBackgroundColor=#ffffff;verticalAlign=top;aspect=fixed;imageAspect=0;image=data:image/svg+xml,PHN2ZyB4bWxuczpjYz0iaHR0cDovL2NyZWF0aXZlY29tbW9ucy5vcmcvbnMjIiB4bWxuczpkYz0iaHR0cDovL3B1cmwub3JnL2RjL2VsZW1lbnRzLzEuMS8iIHhtbG5zOmlua3NjYXBlPSJodHRwOi8vd3d3Lmlua3NjYXBlLm9yZy9uYW1lc3BhY2VzL2lua3NjYXBlIiB4bWxuczpyZGY9Imh0dHA6Ly93d3cudzMub3JnLzE5OTkvMDIvMjItcmRmLXN5bnRheC1ucyMiIHhtbG5zOnNvZGlwb2RpPSJodHRwOi8vc29kaXBvZGkuc291cmNlZm9yZ2UubmV0L0RURC9zb2RpcG9kaS0wLmR0ZCIgeG1sbnM6c3ZnPSJodHRwOi8vd3d3LnczLm9yZy8yMDAwL3N2ZyIgeG1sbnM9Imh0dHA6Ly93d3cudzMub3JnLzIwMDAvc3ZnIiB4bWxuczp4bGluaz0iaHR0cDovL3d3dy53My5vcmcvMTk5OS94bGluayIgdmVyc2lvbj0iMS4xIiBpZD0ic3ZnOTgyOTIiIGlua3NjYXBlOnZlcnNpb249IjAuOTIuMyAoMjQwNTU0NiwgMjAxOC0wMy0xMSkiIHNvZGlwb2RpOmRvY25hbWU9InN0b3JhZ2VfcmVzb3VyY2VfZ3JvdXAuc3ZnIiB4PSIwcHgiIHk9IjBweCIgdmlld0JveD0iMCAwIDU4Ljc3IDUwLjI0IiBzdHlsZT0iZW5hYmxlLWJhY2tncm91bmQ6bmV3IDAgMCA1OC43NyA1MC4yNDsiIHhtbDpzcGFjZT0icHJlc2VydmUiPiYjeGE7PHNvZGlwb2RpOm5hbWVkdmlldyBib3JkZXJjb2xvcj0iIzY2NjY2NiIgYm9yZGVyb3BhY2l0eT0iMSIgZml0LW1hcmdpbi1ib3R0b209IjAiIGZpdC1tYXJnaW4tbGVmdD0iMCIgZml0LW1hcmdpbi1yaWdodD0iMCIgZml0LW1hcmdpbi10b3A9IjAiIGdyaWR0b2xlcmFuY2U9IjEwIiBndWlkZXRvbGVyYW5jZT0iMTAiIGlkPSJuYW1lZHZpZXc5ODI5NCIgaW5rc2NhcGU6Y3VycmVudC1sYXllcj0ic3ZnOTgyOTIiIGlua3NjYXBlOmN4PSI0My44NTM2MjciIGlua3NjYXBlOmN5PSIyNS40NDM1OCIgaW5rc2NhcGU6cGFnZW9wYWNpdHk9IjAiIGlua3NjYXBlOnBhZ2VzaGFkb3c9IjIiIGlua3NjYXBlOndpbmRvdy1oZWlnaHQ9IjEwMTciIGlua3NjYXBlOndpbmRvdy1tYXhpbWl6ZWQ9IjEiIGlua3NjYXBlOndpbmRvdy13aWR0aD0iMTkyMCIgaW5rc2NhcGU6d2luZG93LXg9Ii04IiBpbmtzY2FwZTp3aW5kb3cteT0iLTgiIGlua3NjYXBlOnpvb209IjkuMTUxNzgxMSIgb2JqZWN0dG9sZXJhbmNlPSIxMCIgcGFnZWNvbG9yPSIjZmZmZmZmIiBzaG93Z3JpZD0iZmFsc2UiPiYjeGE7CTwvc29kaXBvZGk6bmFtZWR2aWV3PiYjeGE7PGcgaWQ9Imc5ODI5MCIgdHJhbnNmb3JtPSJ0cmFuc2xhdGUoMCwwLjAwMzM0NTMxKSI+JiN4YTsJPHRpdGxlIGlkPSJ0aXRsZTk4MTM1Ij5QYWdlLTE8L3RpdGxlPiYjeGE7CTxnIGlkPSJncm91cDUxNjUtMSI+JiN4YTsJCTx0aXRsZSBpZD0idGl0bGU5ODEzNyI+U3RvcmFnZSBSZXNvdXJjZSBHcm91cDwvdGl0bGU+JiN4YTsJCTxnIGlkPSJzaGFwZTUxNjYtMiI+JiN4YTsJCQk8dGl0bGUgaWQ9InRpdGxlOTgxMzkiPlNoZWV0LjUxNjY8L3RpdGxlPiYjeGE7CQkJPHBhdGggaWQ9InBhdGg5ODE0MSIgaW5rc2NhcGU6Y29ubmVjdG9yLWN1cnZhdHVyZT0iMCIgc3R5bGU9ImZpbGw6I0UwRTBFMDsiIGQ9Ik0wLDQ3Ljk4YzAsMS4zNCwwLjk2LDIuMjYsMi4xNCwyLjI2ICAgICBjNTQuNDEsMCw1NC40MSwwLDU0LjQxLDBjMS4zLDAsMi4yMi0wLjkyLDIuMjItMi4yNmMwLTM5LjQsMC0zOS40LDAtMzkuNEMwLDguNTgsMCw4LjU4LDAsOC41OEMwLDQ3Ljk4LDAsNDcuOTgsMCw0Ny45OHoiLz4mI3hhOwkJPC9nPiYjeGE7CQk8ZyBpZD0ic2hhcGU1MTY3LTQiIHRyYW5zZm9ybT0idHJhbnNsYXRlKDAsLTQxLjY2MzQpIj4mI3hhOwkJCTx0aXRsZSBpZD0idGl0bGU5ODE0NCI+U2hlZXQuNTE2NzwvdGl0bGU+JiN4YTsJCQk8cGF0aCBpZD0icGF0aDk4MTQ2IiBpbmtzY2FwZTpjb25uZWN0b3ItY3VydmF0dXJlPSIwIiBzdHlsZT0iZmlsbDojOERDNjNGOyIgZD0iTTU2LjY2LDQxLjY2Yy01NC41MiwwLTU0LjUyLDAtNTQuNTIsMCAgICAgQzAuOTYsNDEuNjYsMCw0Mi43LDAsNDMuODFjMCw2LjQzLDAsNi40MywwLDYuNDNjNTguNzcsMCw1OC43NywwLDU4Ljc3LDBjMC02LjQzLDAtNi40MywwLTYuNDMgICAgIEM1OC43Nyw0Mi43LDU3Ljg1LDQxLjY2LDU2LjY2LDQxLjY2eiIvPiYjeGE7CQk8L2c+JiN4YTsJCTxnIGlkPSJzaGFwZTUxNjgtNiIgdHJhbnNmb3JtPSJ0cmFuc2xhdGUoMTcuMTQwNywtMjIuMDU3MSkiPiYjeGE7CQkJPHRpdGxlIGlkPSJ0aXRsZTk4MTQ5Ij5TaGVldC41MTY4PC90aXRsZT4mI3hhOwkJCTxwYXRoIGlkPSJwYXRoOTgxNTEiIGlua3NjYXBlOmNvbm5lY3Rvci1jdXJ2YXR1cmU9IjAiIHN0eWxlPSJmaWxsOiNGRkZGRkY7IiBkPSJNMCw0My41djYuNzRoMTEuMDJWNDMuNUgweiIvPiYjeGE7CQk8L2c+JiN4YTsJCTxnIGlkPSJzaGFwZTUxNjktOCIgdHJhbnNmb3JtPSJ0cmFuc2xhdGUoMTcuMTQwNywtMzAuNjM0OCkiPiYjeGE7CQkJPHRpdGxlIGlkPSJ0aXRsZTk4MTU0Ij5TaGVldC41MTY5PC90aXRsZT4mI3hhOwkJCTxwYXRoIGlkPSJwYXRoOTgxNTYiIGlua3NjYXBlOmNvbm5lY3Rvci1jdXJ2YXR1cmU9IjAiIHN0eWxlPSJmaWxsOiNGRkZGRkY7IiBkPSJNMCw0My41djYuNzRoMTEuMDJWNDMuNUgweiIvPiYjeGE7CQk8L2c+JiN4YTsJCTxnIGlkPSJzaGFwZTUxNzAtMTAiIHRyYW5zZm9ybT0idHJhbnNsYXRlKDE3LjE0MDcsLTEzLjQ3OTMpIj4mI3hhOwkJCTx0aXRsZSBpZD0idGl0bGU5ODE1OSI+U2hlZXQuNTE3MDwvdGl0bGU+JiN4YTsJCQk8cGF0aCBpZD0icGF0aDk4MTYxIiBpbmtzY2FwZTpjb25uZWN0b3ItY3VydmF0dXJlPSIwIiBzdHlsZT0iZmlsbDojOERDNjNGOyIgZD0iTTAsNDQuMTF2Ni4xM2gxMS4wMnYtNi4xM0gweiIvPiYjeGE7CQk8L2c+JiN4YTsJCTxnIGlkPSJzaGFwZTUxNzEtMTIiIHRyYW5zZm9ybT0idHJhbnNsYXRlKDMwLjYwODQsLTEzLjQ3OTMpIj4mI3hhOwkJCTx0aXRsZSBpZD0idGl0bGU5ODE2NCI+U2hlZXQuNTE3MTwvdGl0bGU+JiN4YTsJCQk8cGF0aCBpZD0icGF0aDk4MTY2IiBpbmtzY2FwZTpjb25uZWN0b3ItY3VydmF0dXJlPSIwIiBzdHlsZT0iZmlsbDojOERDNjNGOyIgZD0iTTAsNDQuMTF2Ni4xM2gxMS4wMnYtNi4xM0gweiIvPiYjeGE7CQk8L2c+JiN4YTsJCTxnIGlkPSJzaGFwZTUxNzItMTQiIHRyYW5zZm9ybT0idHJhbnNsYXRlKDMwLjYwODQsLTIyLjA1NzEpIj4mI3hhOwkJCTx0aXRsZSBpZD0idGl0bGU5ODE2OSI+U2hlZXQuNTE3MjwvdGl0bGU+JiN4YTsJCQk8cGF0aCBpZD0icGF0aDk4MTcxIiBpbmtzY2FwZTpjb25uZWN0b3ItY3VydmF0dXJlPSIwIiBzdHlsZT0iZmlsbDojRkZGRkZGOyIgZD0iTTAsNDMuNXY2Ljc0aDExLjAyVjQzLjVIMHoiLz4mI3hhOwkJPC9nPiYjeGE7CQk8ZyBpZD0ic2hhcGU1MTczLTE2IiB0cmFuc2Zvcm09InRyYW5zbGF0ZSgzMC42MDg0LC0zMC42MzQ4KSI+JiN4YTsJCQk8dGl0bGUgaWQ9InRpdGxlOTgxNzQiPlNoZWV0LjUxNzM8L3RpdGxlPiYjeGE7CQkJPHBhdGggaWQ9InBhdGg5ODE3NiIgaW5rc2NhcGU6Y29ubmVjdG9yLWN1cnZhdHVyZT0iMCIgc3R5bGU9ImZpbGw6I0ZGRkZGRjsiIGQ9Ik0wLDQzLjV2Ni43NGgxMS4wMlY0My41SDB6Ii8+JiN4YTsJCTwvZz4mI3hhOwkJPGcgaWQ9InNoYXBlNTE3NC0xOCIgdHJhbnNmb3JtPSJ0cmFuc2xhdGUoNC4yODUxNywtMzAuNjM0OCkiPiYjeGE7CQkJPHRpdGxlIGlkPSJ0aXRsZTk4MTc5Ij5TaGVldC41MTc0PC90aXRsZT4mI3hhOwkJCTxwYXRoIGlkPSJwYXRoOTgxODEiIGlua3NjYXBlOmNvbm5lY3Rvci1jdXJ2YXR1cmU9IjAiIHN0eWxlPSJmaWxsOiNGRkZGRkY7IiBkPSJNMCw0My41djYuNzRoMTEuMDJWNDMuNUgweiIvPiYjeGE7CQk8L2c+JiN4YTsJCTxnIGlkPSJzaGFwZTUxNzUtMjAiIHRyYW5zZm9ybT0idHJhbnNsYXRlKDQuMjg1MTcsLTIyLjA1NzEpIj4mI3hhOwkJCTx0aXRsZSBpZD0idGl0bGU5ODE4NCI+U2hlZXQuNTE3NTwvdGl0bGU+JiN4YTsJCQk8cGF0aCBpZD0icGF0aDk4MTg2IiBpbmtzY2FwZTpjb25uZWN0b3ItY3VydmF0dXJlPSIwIiBzdHlsZT0iZmlsbDojRkZGRkZGOyIgZD0iTTAsNDMuNXY2Ljc0aDExLjAyVjQzLjVIMHoiLz4mI3hhOwkJPC9nPiYjeGE7CQk8ZyBpZD0ic2hhcGU1MTc2LTIyIiB0cmFuc2Zvcm09InRyYW5zbGF0ZSg0LjI4NTE3LC0xMy40NzkzKSI+JiN4YTsJCQk8dGl0bGUgaWQ9InRpdGxlOTgxODkiPlNoZWV0LjUxNzY8L3RpdGxlPiYjeGE7CQkJPHBhdGggaWQ9InBhdGg5ODE5MSIgaW5rc2NhcGU6Y29ubmVjdG9yLWN1cnZhdHVyZT0iMCIgc3R5bGU9ImZpbGw6IzhEQzYzRjsiIGQ9Ik0wLDQ0LjExdjYuMTNoMTEuMDJ2LTYuMTNIMHoiLz4mI3hhOwkJPC9nPiYjeGE7CQk8ZyBpZD0ic2hhcGU1MTc3LTI0IiB0cmFuc2Zvcm09InRyYW5zbGF0ZSg0LjI4NTE3LC00LjI4ODg4KSI+JiN4YTsJCQk8dGl0bGUgaWQ9InRpdGxlOTgxOTQiPlNoZWV0LjUxNzc8L3RpdGxlPiYjeGE7CQkJPHBhdGggaWQ9InBhdGg5ODE5NiIgaW5rc2NhcGU6Y29ubmVjdG9yLWN1cnZhdHVyZT0iMCIgc3R5bGU9ImZpbGw6IzhEQzYzRjsiIGQ9Ik0wLDQzLjV2Ni43NGgxMS4wMlY0My41SDB6Ii8+JiN4YTsJCTwvZz4mI3hhOwkJPGcgaWQ9InNoYXBlNTE3OC0yNiIgdHJhbnNmb3JtPSJ0cmFuc2xhdGUoMTcuMTQwNywtNC4yODg4OCkiPiYjeGE7CQkJPHRpdGxlIGlkPSJ0aXRsZTk4MTk5Ij5TaGVldC41MTc4PC90aXRsZT4mI3hhOwkJCTxwYXRoIGlkPSJwYXRoOTgyMDEiIGlua3NjYXBlOmNvbm5lY3Rvci1jdXJ2YXR1cmU9IjAiIHN0eWxlPSJmaWxsOiM4REM2M0Y7IiBkPSJNMCw0My41djYuNzRoMTEuMDJWNDMuNUgweiIvPiYjeGE7CQk8L2c+JiN4YTsJCTxnIGlkPSJzaGFwZTUxNzktMjgiIHRyYW5zZm9ybT0idHJhbnNsYXRlKDMwLjYwODQsLTQuMjg4ODgpIj4mI3hhOwkJCTx0aXRsZSBpZD0idGl0bGU5ODIwNCI+U2hlZXQuNTE3OTwvdGl0bGU+JiN4YTsJCQk8cGF0aCBpZD0icGF0aDk4MjA2IiBpbmtzY2FwZTpjb25uZWN0b3ItY3VydmF0dXJlPSIwIiBzdHlsZT0iZmlsbDojOERDNjNGOyIgZD0iTTAsNDMuNXY2Ljc0aDExLjAyVjQzLjVIMHoiLz4mI3hhOwkJPC9nPiYjeGE7CQk8ZyBpZD0ic2hhcGU1MTgwLTMwIiB0cmFuc2Zvcm09InRyYW5zbGF0ZSg0My40NjM5LC0xMy40NzkzKSI+JiN4YTsJCQk8dGl0bGUgaWQ9InRpdGxlOTgyMDkiPlNoZWV0LjUxODA8L3RpdGxlPiYjeGE7CQkJPHBhdGggaWQ9InBhdGg5ODIxMSIgaW5rc2NhcGU6Y29ubmVjdG9yLWN1cnZhdHVyZT0iMCIgc3R5bGU9ImZpbGw6IzhEQzYzRjsiIGQ9Ik0wLDQ0LjExdjYuMTNoMTEuMDJ2LTYuMTNIMHoiLz4mI3hhOwkJPC9nPiYjeGE7CQk8ZyBpZD0ic2hhcGU1MTgxLTMyIiB0cmFuc2Zvcm09InRyYW5zbGF0ZSg0My40NjM5LC0yMi4wNTcxKSI+JiN4YTsJCQk8dGl0bGUgaWQ9InRpdGxlOTgyMTQiPlNoZWV0LjUxODE8L3RpdGxlPiYjeGE7CQkJPHBhdGggaWQ9InBhdGg5ODIxNiIgaW5rc2NhcGU6Y29ubmVjdG9yLWN1cnZhdHVyZT0iMCIgc3R5bGU9ImZpbGw6I0ZGRkZGRjsiIGQ9Ik0wLDQzLjV2Ni43NGgxMS4wMlY0My41SDB6Ii8+JiN4YTsJCTwvZz4mI3hhOwkJPGcgaWQ9InNoYXBlNTE4Mi0zNCIgdHJhbnNmb3JtPSJ0cmFuc2xhdGUoNDMuNDYzOSwtMzAuNjM0OCkiPiYjeGE7CQkJPHRpdGxlIGlkPSJ0aXRsZTk4MjE5Ij5TaGVldC41MTgyPC90aXRsZT4mI3hhOwkJCTxwYXRoIGlkPSJwYXRoOTgyMjEiIGlua3NjYXBlOmNvbm5lY3Rvci1jdXJ2YXR1cmU9IjAiIHN0eWxlPSJmaWxsOiNGRkZGRkY7IiBkPSJNMCw0My41djYuNzRoMTEuMDJWNDMuNUgweiIvPiYjeGE7CQk8L2c+JiN4YTsJCTxnIGlkPSJzaGFwZTUxODMtMzYiIHRyYW5zZm9ybT0idHJhbnNsYXRlKDQzLjQ2MzksLTQuMjg4ODgpIj4mI3hhOwkJCTx0aXRsZSBpZD0idGl0bGU5ODIyNCI+U2hlZXQuNTE4MzwvdGl0bGU+JiN4YTsJCQk8cGF0aCBpZD0icGF0aDk4MjI2IiBpbmtzY2FwZTpjb25uZWN0b3ItY3VydmF0dXJlPSIwIiBzdHlsZT0iZmlsbDojOERDNjNGOyIgZD0iTTAsNDMuNXY2Ljc0aDExLjAyVjQzLjVIMHoiLz4mI3hhOwkJPC9nPiYjeGE7CQk8ZyBpZD0ic2hhcGU1MTg0LTM4IiB0cmFuc2Zvcm09InRyYW5zbGF0ZSgxLjgzNjUpIj4mI3hhOwkJCTx0aXRsZSBpZD0idGl0bGU5ODIyOSI+U2hlZXQuNTE4NDwvdGl0bGU+JiN4YTsJCQk8cGF0aCBpZD0icGF0aDk4MjMxIiBpbmtzY2FwZTpjb25uZWN0b3ItY3VydmF0dXJlPSIwIiBzdHlsZT0iZmlsbDojMUM0MjdGOyIgZD0iTTAuMTUsNTAuMjRjMC4xMiwwLDAuMjMsMCwwLjQ2LDAgICAgIGMyLjQ5LDAsMi40OSwwLDIuNDksMGMwLjExLDAsMC4xMSwwLDAuMTEsMGMtMi44MywwLTIuODMsMC0yLjgzLDBDMC4yNyw1MC4yNCwwLjI3LDUwLjI0LDAuMTUsNTAuMjR6IE00OS41OSwwICAgICBDMC42MSwwLDAuNjEsMCwwLjYxLDBDMC4zOCwwLDAuMjcsMCwwLDAuMTVDMC4xNSwwLjE1LDAuMjcsMCwwLjM4LDBDNDkuNTksMCw0OS41OSwwLDQ5LjU5LDBMNDkuNTksMHoiLz4mI3hhOwkJPC9nPiYjeGE7CQk8ZyBpZD0ic2hhcGU1MTg1LTQwIj4mI3hhOwkJCTx0aXRsZSBpZD0idGl0bGU5ODIzNCI+U2hlZXQuNTE4NTwvdGl0bGU+JiN4YTsJCQk8cGF0aCBpZD0icGF0aDk4MjM2IiBpbmtzY2FwZTpjb25uZWN0b3ItY3VydmF0dXJlPSIwIiBzdHlsZT0iZmlsbDojRTNFM0UzOyIgZD0iTTQuMzYsMzcuMDNjMC02LjY2LDAtNi42NiwwLTYuNjYgICAgIGMxMC43OSwwLDEwLjc5LDAsMTAuNzksMGMwLDYuNjYsMCw2LjY2LDAsNi42NkM0LjM2LDM3LjAzLDQuMzYsMzcuMDMsNC4zNiwzNy4wM3ogTTQuMzYsMjguMjJjMC02LjY2LDAtNi42NiwwLTYuNjYgICAgIGMxMC43OSwwLDEwLjc5LDAsMTAuNzksMGMwLDYuNjYsMCw2LjY2LDAsNi42NkM0LjM2LDI4LjIyLDQuMzYsMjguMjIsNC4zNiwyOC4yMnogTTQuMzYsMTkuNDFjMC02LjY2LDAtNi42NiwwLTYuNjYgICAgIGMxMC43OSwwLDEwLjc5LDAsMTAuNzksMGMwLDYuNjYsMCw2LjY2LDAsNi42NkM0LjM2LDE5LjQxLDQuMzYsMTkuNDEsNC4zNiwxOS40MXogTTE3LjQxLDE5LjQxYzAtNi42NiwwLTYuNjYsMC02LjY2ICAgICBjMTAuNzksMCwxMC43OSwwLDEwLjc5LDBjMCw2LjY2LDAsNi42NiwwLDYuNjZDMTcuNDEsMTkuNDEsMTcuNDEsMTkuNDEsMTcuNDEsMTkuNDF6IE00Mi44NSw4LjU4QzAsOC41OCwwLDguNTgsMCw4LjU4ICAgICBjMCwyLjAzLDAsMi4wMywwLDIuMDNjMCwzLjk0LDAsMy45NCwwLDMuOTRjMCwzMy4zMiwwLDMzLjMyLDAsMzMuMzJjMCwxLjE4LDAuODQsMi4xNCwxLjkxLDIuMzdjMC4xMiwwLDAuMTIsMCwwLjIzLDAgICAgIGMyLjgsMCwyLjgsMCwyLjgsMGM0LjAxLTQuNCw0LjAxLTQuNCw0LjAxLTQuNGMtNC41OSwwLTQuNTksMC00LjU5LDBjMC02LjY3LDAtNi42NywwLTYuNjdjMTAuNTYsMCwxMC41NiwwLDEwLjU2LDAgICAgIGMyLjQ5LTIuNiwyLjQ5LTIuNiwyLjQ5LTIuNmMwLTYuMiwwLTYuMiwwLTYuMmM1LjYyLDAsNS42MiwwLDUuNjIsMGMxLjk5LTIuMTUsMS45OS0yLjE1LDEuOTktMi4xNWMtNy42MSwwLTcuNjEsMC03LjYxLDAgICAgIGMwLTYuNjYsMC02LjY2LDAtNi42NmMxMC43OSwwLDEwLjc5LDAsMTAuNzksMGMwLDMuMSwwLDMuMSwwLDMuMWMyLjIyLTIuMzcsMi4yMi0yLjM3LDIuMjItMi4zN2MwLTAuNzMsMC0wLjczLDAtMC43MyAgICAgYzAuNjEsMCwwLjYxLDAsMC42MSwwYzEuOTktMi4xNSwxLjk5LTIuMTUsMS45OS0yLjE1Yy0yLjYsMC0yLjYsMC0yLjYsMGMwLTYuNjYsMC02LjY2LDAtNi42NmM4LjU3LDAsOC41NywwLDguNTcsMCAgICAgQzQyLjg1LDguNTgsNDIuODUsOC41OCw0Mi44NSw4LjU4eiIvPiYjeGE7CQk8L2c+JiN4YTsJCTxnIGlkPSJzaGFwZTUxODYtNDIiIHRyYW5zZm9ybT0idHJhbnNsYXRlKDAsLTQxLjY2MzQpIj4mI3hhOwkJCTx0aXRsZSBpZD0idGl0bGU5ODIzOSI+U2hlZXQuNTE4NjwvdGl0bGU+JiN4YTsJCQk8cGF0aCBpZD0icGF0aDk4MjQxIiBpbmtzY2FwZTpjb25uZWN0b3ItY3VydmF0dXJlPSIwIiBzdHlsZT0iZmlsbDojOTlDQzUzOyIgZD0iTTUxLjQyLDQxLjY2Yy00OS4yOCwwLTQ5LjI4LDAtNDkuMjgsMCAgICAgYy0wLjExLDAtMC4yMywwLjEyLTAuMzQsMC4xMkMwLjczLDQyLjAxLDAsNDIuOTMsMCw0My45MmMwLDYuMzIsMCw2LjMyLDAsNi4zMmM0My4xNiwwLDQzLjE2LDAsNDMuMTYsMCAgICAgQzUxLjQyLDQxLjY2LDUxLjQyLDQxLjY2LDUxLjQyLDQxLjY2eiIvPiYjeGE7CQk8L2c+JiN4YTsJCTxnIGlkPSJzaGFwZTUxODctNDQiIHRyYW5zZm9ybT0idHJhbnNsYXRlKDE3LjE0MDcsLTIyLjA1NzEpIj4mI3hhOwkJCTx0aXRsZSBpZD0idGl0bGU5ODI0NCI+U2hlZXQuNTE4NzwvdGl0bGU+JiN4YTsJCQk8cGF0aCBpZD0icGF0aDk4MjQ2IiBpbmtzY2FwZTpjb25uZWN0b3ItY3VydmF0dXJlPSIwIiBzdHlsZT0iZmlsbDojRkZGRkZGOyIgZD0iTTExLjAyLDQzLjVIMHY2Ljc0aDcuODFsMy4yMS0zLjZWNDMuNXoiLz4mI3hhOwkJPC9nPiYjeGE7CQk8ZyBpZD0ic2hhcGU1MTg4LTQ2IiB0cmFuc2Zvcm09InRyYW5zbGF0ZSgxNy4xNDA3LC0zMC42MzQ4KSI+JiN4YTsJCQk8dGl0bGUgaWQ9InRpdGxlOTgyNDkiPlNoZWV0LjUxODg8L3RpdGxlPiYjeGE7CQkJPHBhdGggaWQ9InBhdGg5ODI1MSIgaW5rc2NhcGU6Y29ubmVjdG9yLWN1cnZhdHVyZT0iMCIgc3R5bGU9ImZpbGw6I0ZGRkZGRjsiIGQ9Ik0wLDQzLjV2Ni43NGgxMS4wMlY0My41SDB6Ii8+JiN4YTsJCTwvZz4mI3hhOwkJPGcgaWQ9InNoYXBlNTE4OS00OCIgdHJhbnNmb3JtPSJ0cmFuc2xhdGUoMTcuMTQwNywtMTMuNDc5MykiPiYjeGE7CQkJPHRpdGxlIGlkPSJ0aXRsZTk4MjU0Ij5TaGVldC41MTg5PC90aXRsZT4mI3hhOwkJCTxwYXRoIGlkPSJwYXRoOTgyNTYiIGlua3NjYXBlOmNvbm5lY3Rvci1jdXJ2YXR1cmU9IjAiIHN0eWxlPSJmaWxsOiM5OUNDNTM7IiBkPSJNNi4xMiw0NC4xMUgwdjYuMTNMNi4xMiw0NC4xMXoiLz4mI3hhOwkJPC9nPiYjeGE7CQk8ZyBpZD0ic2hhcGU1MTkwLTUwIiB0cmFuc2Zvcm09InRyYW5zbGF0ZSgzMC42MDg0LC0yNy41NzE0KSI+JiN4YTsJCQk8dGl0bGUgaWQ9InRpdGxlOTgyNTkiPlNoZWV0LjUxOTA8L3RpdGxlPiYjeGE7CQkJPHBhdGggaWQ9InBhdGg5ODI2MSIgaW5rc2NhcGU6Y29ubmVjdG9yLWN1cnZhdHVyZT0iMCIgc3R5bGU9ImZpbGw6I0ZGRkZGRjsiIGQ9Ik0wLjYxLDQ5LjAySDB2MS4yMkwwLjYxLDQ5LjAyeiIvPiYjeGE7CQk8L2c+JiN4YTsJCTxnIGlkPSJzaGFwZTUxOTEtNTIiIHRyYW5zZm9ybT0idHJhbnNsYXRlKDMwLjYwODQsLTMwLjYzNDgpIj4mI3hhOwkJCTx0aXRsZSBpZD0idGl0bGU5ODI2NCI+U2hlZXQuNTE5MTwvdGl0bGU+JiN4YTsJCQk8cGF0aCBpZD0icGF0aDk4MjY2IiBpbmtzY2FwZTpjb25uZWN0b3ItY3VydmF0dXJlPSIwIiBzdHlsZT0iZmlsbDojRkZGRkZGOyIgZD0iTTguNTcsNDMuNUgwdjYuNzRoMi42NEw4LjU3LDQzLjV6Ii8+JiN4YTsJCTwvZz4mI3hhOwkJPGcgaWQ9InNoYXBlNTE5Mi01NCIgdHJhbnNmb3JtPSJ0cmFuc2xhdGUoNC4yODUxNywtMzAuNjM0OCkiPiYjeGE7CQkJPHRpdGxlIGlkPSJ0aXRsZTk4MjY5Ij5TaGVldC41MTkyPC90aXRsZT4mI3hhOwkJCTxwYXRoIGlkPSJwYXRoOTgyNzEiIGlua3NjYXBlOmNvbm5lY3Rvci1jdXJ2YXR1cmU9IjAiIHN0eWxlPSJmaWxsOiNGRkZGRkY7IiBkPSJNMCw0My41djYuNzRoMTEuMDJWNDMuNUgweiIvPiYjeGE7CQk8L2c+JiN4YTsJCTxnIGlkPSJzaGFwZTUxOTMtNTYiIHRyYW5zZm9ybT0idHJhbnNsYXRlKDQuMjg1MTcsLTIyLjA1NzEpIj4mI3hhOwkJCTx0aXRsZSBpZD0idGl0bGU5ODI3NCI+U2hlZXQuNTE5MzwvdGl0bGU+JiN4YTsJCQk8cGF0aCBpZD0icGF0aDk4Mjc2IiBpbmtzY2FwZTpjb25uZWN0b3ItY3VydmF0dXJlPSIwIiBzdHlsZT0iZmlsbDojRkZGRkZGOyIgZD0iTTAsNDMuNXY2Ljc0aDExLjAyVjQzLjVIMHoiLz4mI3hhOwkJPC9nPiYjeGE7CQk8ZyBpZD0ic2hhcGU1MTk0LTU4IiB0cmFuc2Zvcm09InRyYW5zbGF0ZSg0LjI4NTE3LC0xMy40NzkzKSI+JiN4YTsJCQk8dGl0bGUgaWQ9InRpdGxlOTgyNzkiPlNoZWV0LjUxOTQ8L3RpdGxlPiYjeGE7CQkJPHBhdGggaWQ9InBhdGg5ODI4MSIgaW5rc2NhcGU6Y29ubmVjdG9yLWN1cnZhdHVyZT0iMCIgc3R5bGU9ImZpbGw6Izk5Q0M1MzsiIGQ9Ik0wLDQ0LjExdjYuMTNoMTEuMDJ2LTYuMTNIMHoiLz4mI3hhOwkJPC9nPiYjeGE7CQk8ZyBpZD0ic2hhcGU1MTk1LTYwIiB0cmFuc2Zvcm09InRyYW5zbGF0ZSg0LjI4NTE3LC00LjI4ODg4KSI+JiN4YTsJCQk8dGl0bGUgaWQ9InRpdGxlOTgyODQiPlNoZWV0LjUxOTU8L3RpdGxlPiYjeGE7CQkJPHBhdGggaWQ9InBhdGg5ODI4NiIgaW5rc2NhcGU6Y29ubmVjdG9yLWN1cnZhdHVyZT0iMCIgc3R5bGU9ImZpbGw6Izk5Q0M1MzsiIGQ9Ik0xMC40MSw0My41SDB2Ni43NGg0LjUxTDEwLjQxLDQzLjV6Ii8+JiN4YTsJCTwvZz4mI3hhOwk8L2c+JiN4YTs8L2c+JiN4YTs8L3N2Zz4=;" vertex="1" parent="1">
          <mxGeometry x="210" y="136.60000000000002" width="59" height="50" as="geometry" />
        </mxCell>
        <mxCell id="mvVqa1zRDEvd16IM3_gt-3" value="" style="shape=image;verticalLabelPosition=bottom;labelBackgroundColor=#ffffff;verticalAlign=top;aspect=fixed;imageAspect=0;image=data:image/svg+xml,PHN2ZyB4bWxuczpjYz0iaHR0cDovL2NyZWF0aXZlY29tbW9ucy5vcmcvbnMjIiB4bWxuczpkYz0iaHR0cDovL3B1cmwub3JnL2RjL2VsZW1lbnRzLzEuMS8iIHhtbG5zOmlua3NjYXBlPSJodHRwOi8vd3d3Lmlua3NjYXBlLm9yZy9uYW1lc3BhY2VzL2lua3NjYXBlIiB4bWxuczpyZGY9Imh0dHA6Ly93d3cudzMub3JnLzE5OTkvMDIvMjItcmRmLXN5bnRheC1ucyMiIHhtbG5zOnNvZGlwb2RpPSJodHRwOi8vc29kaXBvZGkuc291cmNlZm9yZ2UubmV0L0RURC9zb2RpcG9kaS0wLmR0ZCIgeG1sbnM6c3ZnPSJodHRwOi8vd3d3LnczLm9yZy8yMDAwL3N2ZyIgeG1sbnM9Imh0dHA6Ly93d3cudzMub3JnLzIwMDAvc3ZnIiB4bWxuczp4bGluaz0iaHR0cDovL3d3dy53My5vcmcvMTk5OS94bGluayIgdmVyc2lvbj0iMS4xIiBpZD0ic3ZnOTgyOTIiIGlua3NjYXBlOnZlcnNpb249IjAuOTIuMyAoMjQwNTU0NiwgMjAxOC0wMy0xMSkiIHNvZGlwb2RpOmRvY25hbWU9InN0b3JhZ2VfcmVzb3VyY2VfZ3JvdXAuc3ZnIiB4PSIwcHgiIHk9IjBweCIgdmlld0JveD0iMCAwIDU4Ljc3IDUwLjI0IiBzdHlsZT0iZW5hYmxlLWJhY2tncm91bmQ6bmV3IDAgMCA1OC43NyA1MC4yNDsiIHhtbDpzcGFjZT0icHJlc2VydmUiPiYjeGE7PHNvZGlwb2RpOm5hbWVkdmlldyBib3JkZXJjb2xvcj0iIzY2NjY2NiIgYm9yZGVyb3BhY2l0eT0iMSIgZml0LW1hcmdpbi1ib3R0b209IjAiIGZpdC1tYXJnaW4tbGVmdD0iMCIgZml0LW1hcmdpbi1yaWdodD0iMCIgZml0LW1hcmdpbi10b3A9IjAiIGdyaWR0b2xlcmFuY2U9IjEwIiBndWlkZXRvbGVyYW5jZT0iMTAiIGlkPSJuYW1lZHZpZXc5ODI5NCIgaW5rc2NhcGU6Y3VycmVudC1sYXllcj0ic3ZnOTgyOTIiIGlua3NjYXBlOmN4PSI0My44NTM2MjciIGlua3NjYXBlOmN5PSIyNS40NDM1OCIgaW5rc2NhcGU6cGFnZW9wYWNpdHk9IjAiIGlua3NjYXBlOnBhZ2VzaGFkb3c9IjIiIGlua3NjYXBlOndpbmRvdy1oZWlnaHQ9IjEwMTciIGlua3NjYXBlOndpbmRvdy1tYXhpbWl6ZWQ9IjEiIGlua3NjYXBlOndpbmRvdy13aWR0aD0iMTkyMCIgaW5rc2NhcGU6d2luZG93LXg9Ii04IiBpbmtzY2FwZTp3aW5kb3cteT0iLTgiIGlua3NjYXBlOnpvb209IjkuMTUxNzgxMSIgb2JqZWN0dG9sZXJhbmNlPSIxMCIgcGFnZWNvbG9yPSIjZmZmZmZmIiBzaG93Z3JpZD0iZmFsc2UiPiYjeGE7CTwvc29kaXBvZGk6bmFtZWR2aWV3PiYjeGE7PGcgaWQ9Imc5ODI5MCIgdHJhbnNmb3JtPSJ0cmFuc2xhdGUoMCwwLjAwMzM0NTMxKSI+JiN4YTsJPHRpdGxlIGlkPSJ0aXRsZTk4MTM1Ij5QYWdlLTE8L3RpdGxlPiYjeGE7CTxnIGlkPSJncm91cDUxNjUtMSI+JiN4YTsJCTx0aXRsZSBpZD0idGl0bGU5ODEzNyI+U3RvcmFnZSBSZXNvdXJjZSBHcm91cDwvdGl0bGU+JiN4YTsJCTxnIGlkPSJzaGFwZTUxNjYtMiI+JiN4YTsJCQk8dGl0bGUgaWQ9InRpdGxlOTgxMzkiPlNoZWV0LjUxNjY8L3RpdGxlPiYjeGE7CQkJPHBhdGggaWQ9InBhdGg5ODE0MSIgaW5rc2NhcGU6Y29ubmVjdG9yLWN1cnZhdHVyZT0iMCIgc3R5bGU9ImZpbGw6I0UwRTBFMDsiIGQ9Ik0wLDQ3Ljk4YzAsMS4zNCwwLjk2LDIuMjYsMi4xNCwyLjI2ICAgICBjNTQuNDEsMCw1NC40MSwwLDU0LjQxLDBjMS4zLDAsMi4yMi0wLjkyLDIuMjItMi4yNmMwLTM5LjQsMC0zOS40LDAtMzkuNEMwLDguNTgsMCw4LjU4LDAsOC41OEMwLDQ3Ljk4LDAsNDcuOTgsMCw0Ny45OHoiLz4mI3hhOwkJPC9nPiYjeGE7CQk8ZyBpZD0ic2hhcGU1MTY3LTQiIHRyYW5zZm9ybT0idHJhbnNsYXRlKDAsLTQxLjY2MzQpIj4mI3hhOwkJCTx0aXRsZSBpZD0idGl0bGU5ODE0NCI+U2hlZXQuNTE2NzwvdGl0bGU+JiN4YTsJCQk8cGF0aCBpZD0icGF0aDk4MTQ2IiBpbmtzY2FwZTpjb25uZWN0b3ItY3VydmF0dXJlPSIwIiBzdHlsZT0iZmlsbDojOERDNjNGOyIgZD0iTTU2LjY2LDQxLjY2Yy01NC41MiwwLTU0LjUyLDAtNTQuNTIsMCAgICAgQzAuOTYsNDEuNjYsMCw0Mi43LDAsNDMuODFjMCw2LjQzLDAsNi40MywwLDYuNDNjNTguNzcsMCw1OC43NywwLDU4Ljc3LDBjMC02LjQzLDAtNi40MywwLTYuNDMgICAgIEM1OC43Nyw0Mi43LDU3Ljg1LDQxLjY2LDU2LjY2LDQxLjY2eiIvPiYjeGE7CQk8L2c+JiN4YTsJCTxnIGlkPSJzaGFwZTUxNjgtNiIgdHJhbnNmb3JtPSJ0cmFuc2xhdGUoMTcuMTQwNywtMjIuMDU3MSkiPiYjeGE7CQkJPHRpdGxlIGlkPSJ0aXRsZTk4MTQ5Ij5TaGVldC41MTY4PC90aXRsZT4mI3hhOwkJCTxwYXRoIGlkPSJwYXRoOTgxNTEiIGlua3NjYXBlOmNvbm5lY3Rvci1jdXJ2YXR1cmU9IjAiIHN0eWxlPSJmaWxsOiNGRkZGRkY7IiBkPSJNMCw0My41djYuNzRoMTEuMDJWNDMuNUgweiIvPiYjeGE7CQk8L2c+JiN4YTsJCTxnIGlkPSJzaGFwZTUxNjktOCIgdHJhbnNmb3JtPSJ0cmFuc2xhdGUoMTcuMTQwNywtMzAuNjM0OCkiPiYjeGE7CQkJPHRpdGxlIGlkPSJ0aXRsZTk4MTU0Ij5TaGVldC41MTY5PC90aXRsZT4mI3hhOwkJCTxwYXRoIGlkPSJwYXRoOTgxNTYiIGlua3NjYXBlOmNvbm5lY3Rvci1jdXJ2YXR1cmU9IjAiIHN0eWxlPSJmaWxsOiNGRkZGRkY7IiBkPSJNMCw0My41djYuNzRoMTEuMDJWNDMuNUgweiIvPiYjeGE7CQk8L2c+JiN4YTsJCTxnIGlkPSJzaGFwZTUxNzAtMTAiIHRyYW5zZm9ybT0idHJhbnNsYXRlKDE3LjE0MDcsLTEzLjQ3OTMpIj4mI3hhOwkJCTx0aXRsZSBpZD0idGl0bGU5ODE1OSI+U2hlZXQuNTE3MDwvdGl0bGU+JiN4YTsJCQk8cGF0aCBpZD0icGF0aDk4MTYxIiBpbmtzY2FwZTpjb25uZWN0b3ItY3VydmF0dXJlPSIwIiBzdHlsZT0iZmlsbDojOERDNjNGOyIgZD0iTTAsNDQuMTF2Ni4xM2gxMS4wMnYtNi4xM0gweiIvPiYjeGE7CQk8L2c+JiN4YTsJCTxnIGlkPSJzaGFwZTUxNzEtMTIiIHRyYW5zZm9ybT0idHJhbnNsYXRlKDMwLjYwODQsLTEzLjQ3OTMpIj4mI3hhOwkJCTx0aXRsZSBpZD0idGl0bGU5ODE2NCI+U2hlZXQuNTE3MTwvdGl0bGU+JiN4YTsJCQk8cGF0aCBpZD0icGF0aDk4MTY2IiBpbmtzY2FwZTpjb25uZWN0b3ItY3VydmF0dXJlPSIwIiBzdHlsZT0iZmlsbDojOERDNjNGOyIgZD0iTTAsNDQuMTF2Ni4xM2gxMS4wMnYtNi4xM0gweiIvPiYjeGE7CQk8L2c+JiN4YTsJCTxnIGlkPSJzaGFwZTUxNzItMTQiIHRyYW5zZm9ybT0idHJhbnNsYXRlKDMwLjYwODQsLTIyLjA1NzEpIj4mI3hhOwkJCTx0aXRsZSBpZD0idGl0bGU5ODE2OSI+U2hlZXQuNTE3MjwvdGl0bGU+JiN4YTsJCQk8cGF0aCBpZD0icGF0aDk4MTcxIiBpbmtzY2FwZTpjb25uZWN0b3ItY3VydmF0dXJlPSIwIiBzdHlsZT0iZmlsbDojRkZGRkZGOyIgZD0iTTAsNDMuNXY2Ljc0aDExLjAyVjQzLjVIMHoiLz4mI3hhOwkJPC9nPiYjeGE7CQk8ZyBpZD0ic2hhcGU1MTczLTE2IiB0cmFuc2Zvcm09InRyYW5zbGF0ZSgzMC42MDg0LC0zMC42MzQ4KSI+JiN4YTsJCQk8dGl0bGUgaWQ9InRpdGxlOTgxNzQiPlNoZWV0LjUxNzM8L3RpdGxlPiYjeGE7CQkJPHBhdGggaWQ9InBhdGg5ODE3NiIgaW5rc2NhcGU6Y29ubmVjdG9yLWN1cnZhdHVyZT0iMCIgc3R5bGU9ImZpbGw6I0ZGRkZGRjsiIGQ9Ik0wLDQzLjV2Ni43NGgxMS4wMlY0My41SDB6Ii8+JiN4YTsJCTwvZz4mI3hhOwkJPGcgaWQ9InNoYXBlNTE3NC0xOCIgdHJhbnNmb3JtPSJ0cmFuc2xhdGUoNC4yODUxNywtMzAuNjM0OCkiPiYjeGE7CQkJPHRpdGxlIGlkPSJ0aXRsZTk4MTc5Ij5TaGVldC41MTc0PC90aXRsZT4mI3hhOwkJCTxwYXRoIGlkPSJwYXRoOTgxODEiIGlua3NjYXBlOmNvbm5lY3Rvci1jdXJ2YXR1cmU9IjAiIHN0eWxlPSJmaWxsOiNGRkZGRkY7IiBkPSJNMCw0My41djYuNzRoMTEuMDJWNDMuNUgweiIvPiYjeGE7CQk8L2c+JiN4YTsJCTxnIGlkPSJzaGFwZTUxNzUtMjAiIHRyYW5zZm9ybT0idHJhbnNsYXRlKDQuMjg1MTcsLTIyLjA1NzEpIj4mI3hhOwkJCTx0aXRsZSBpZD0idGl0bGU5ODE4NCI+U2hlZXQuNTE3NTwvdGl0bGU+JiN4YTsJCQk8cGF0aCBpZD0icGF0aDk4MTg2IiBpbmtzY2FwZTpjb25uZWN0b3ItY3VydmF0dXJlPSIwIiBzdHlsZT0iZmlsbDojRkZGRkZGOyIgZD0iTTAsNDMuNXY2Ljc0aDExLjAyVjQzLjVIMHoiLz4mI3hhOwkJPC9nPiYjeGE7CQk8ZyBpZD0ic2hhcGU1MTc2LTIyIiB0cmFuc2Zvcm09InRyYW5zbGF0ZSg0LjI4NTE3LC0xMy40NzkzKSI+JiN4YTsJCQk8dGl0bGUgaWQ9InRpdGxlOTgxODkiPlNoZWV0LjUxNzY8L3RpdGxlPiYjeGE7CQkJPHBhdGggaWQ9InBhdGg5ODE5MSIgaW5rc2NhcGU6Y29ubmVjdG9yLWN1cnZhdHVyZT0iMCIgc3R5bGU9ImZpbGw6IzhEQzYzRjsiIGQ9Ik0wLDQ0LjExdjYuMTNoMTEuMDJ2LTYuMTNIMHoiLz4mI3hhOwkJPC9nPiYjeGE7CQk8ZyBpZD0ic2hhcGU1MTc3LTI0IiB0cmFuc2Zvcm09InRyYW5zbGF0ZSg0LjI4NTE3LC00LjI4ODg4KSI+JiN4YTsJCQk8dGl0bGUgaWQ9InRpdGxlOTgxOTQiPlNoZWV0LjUxNzc8L3RpdGxlPiYjeGE7CQkJPHBhdGggaWQ9InBhdGg5ODE5NiIgaW5rc2NhcGU6Y29ubmVjdG9yLWN1cnZhdHVyZT0iMCIgc3R5bGU9ImZpbGw6IzhEQzYzRjsiIGQ9Ik0wLDQzLjV2Ni43NGgxMS4wMlY0My41SDB6Ii8+JiN4YTsJCTwvZz4mI3hhOwkJPGcgaWQ9InNoYXBlNTE3OC0yNiIgdHJhbnNmb3JtPSJ0cmFuc2xhdGUoMTcuMTQwNywtNC4yODg4OCkiPiYjeGE7CQkJPHRpdGxlIGlkPSJ0aXRsZTk4MTk5Ij5TaGVldC41MTc4PC90aXRsZT4mI3hhOwkJCTxwYXRoIGlkPSJwYXRoOTgyMDEiIGlua3NjYXBlOmNvbm5lY3Rvci1jdXJ2YXR1cmU9IjAiIHN0eWxlPSJmaWxsOiM4REM2M0Y7IiBkPSJNMCw0My41djYuNzRoMTEuMDJWNDMuNUgweiIvPiYjeGE7CQk8L2c+JiN4YTsJCTxnIGlkPSJzaGFwZTUxNzktMjgiIHRyYW5zZm9ybT0idHJhbnNsYXRlKDMwLjYwODQsLTQuMjg4ODgpIj4mI3hhOwkJCTx0aXRsZSBpZD0idGl0bGU5ODIwNCI+U2hlZXQuNTE3OTwvdGl0bGU+JiN4YTsJCQk8cGF0aCBpZD0icGF0aDk4MjA2IiBpbmtzY2FwZTpjb25uZWN0b3ItY3VydmF0dXJlPSIwIiBzdHlsZT0iZmlsbDojOERDNjNGOyIgZD0iTTAsNDMuNXY2Ljc0aDExLjAyVjQzLjVIMHoiLz4mI3hhOwkJPC9nPiYjeGE7CQk8ZyBpZD0ic2hhcGU1MTgwLTMwIiB0cmFuc2Zvcm09InRyYW5zbGF0ZSg0My40NjM5LC0xMy40NzkzKSI+JiN4YTsJCQk8dGl0bGUgaWQ9InRpdGxlOTgyMDkiPlNoZWV0LjUxODA8L3RpdGxlPiYjeGE7CQkJPHBhdGggaWQ9InBhdGg5ODIxMSIgaW5rc2NhcGU6Y29ubmVjdG9yLWN1cnZhdHVyZT0iMCIgc3R5bGU9ImZpbGw6IzhEQzYzRjsiIGQ9Ik0wLDQ0LjExdjYuMTNoMTEuMDJ2LTYuMTNIMHoiLz4mI3hhOwkJPC9nPiYjeGE7CQk8ZyBpZD0ic2hhcGU1MTgxLTMyIiB0cmFuc2Zvcm09InRyYW5zbGF0ZSg0My40NjM5LC0yMi4wNTcxKSI+JiN4YTsJCQk8dGl0bGUgaWQ9InRpdGxlOTgyMTQiPlNoZWV0LjUxODE8L3RpdGxlPiYjeGE7CQkJPHBhdGggaWQ9InBhdGg5ODIxNiIgaW5rc2NhcGU6Y29ubmVjdG9yLWN1cnZhdHVyZT0iMCIgc3R5bGU9ImZpbGw6I0ZGRkZGRjsiIGQ9Ik0wLDQzLjV2Ni43NGgxMS4wMlY0My41SDB6Ii8+JiN4YTsJCTwvZz4mI3hhOwkJPGcgaWQ9InNoYXBlNTE4Mi0zNCIgdHJhbnNmb3JtPSJ0cmFuc2xhdGUoNDMuNDYzOSwtMzAuNjM0OCkiPiYjeGE7CQkJPHRpdGxlIGlkPSJ0aXRsZTk4MjE5Ij5TaGVldC41MTgyPC90aXRsZT4mI3hhOwkJCTxwYXRoIGlkPSJwYXRoOTgyMjEiIGlua3NjYXBlOmNvbm5lY3Rvci1jdXJ2YXR1cmU9IjAiIHN0eWxlPSJmaWxsOiNGRkZGRkY7IiBkPSJNMCw0My41djYuNzRoMTEuMDJWNDMuNUgweiIvPiYjeGE7CQk8L2c+JiN4YTsJCTxnIGlkPSJzaGFwZTUxODMtMzYiIHRyYW5zZm9ybT0idHJhbnNsYXRlKDQzLjQ2MzksLTQuMjg4ODgpIj4mI3hhOwkJCTx0aXRsZSBpZD0idGl0bGU5ODIyNCI+U2hlZXQuNTE4MzwvdGl0bGU+JiN4YTsJCQk8cGF0aCBpZD0icGF0aDk4MjI2IiBpbmtzY2FwZTpjb25uZWN0b3ItY3VydmF0dXJlPSIwIiBzdHlsZT0iZmlsbDojOERDNjNGOyIgZD0iTTAsNDMuNXY2Ljc0aDExLjAyVjQzLjVIMHoiLz4mI3hhOwkJPC9nPiYjeGE7CQk8ZyBpZD0ic2hhcGU1MTg0LTM4IiB0cmFuc2Zvcm09InRyYW5zbGF0ZSgxLjgzNjUpIj4mI3hhOwkJCTx0aXRsZSBpZD0idGl0bGU5ODIyOSI+U2hlZXQuNTE4NDwvdGl0bGU+JiN4YTsJCQk8cGF0aCBpZD0icGF0aDk4MjMxIiBpbmtzY2FwZTpjb25uZWN0b3ItY3VydmF0dXJlPSIwIiBzdHlsZT0iZmlsbDojMUM0MjdGOyIgZD0iTTAuMTUsNTAuMjRjMC4xMiwwLDAuMjMsMCwwLjQ2LDAgICAgIGMyLjQ5LDAsMi40OSwwLDIuNDksMGMwLjExLDAsMC4xMSwwLDAuMTEsMGMtMi44MywwLTIuODMsMC0yLjgzLDBDMC4yNyw1MC4yNCwwLjI3LDUwLjI0LDAuMTUsNTAuMjR6IE00OS41OSwwICAgICBDMC42MSwwLDAuNjEsMCwwLjYxLDBDMC4zOCwwLDAuMjcsMCwwLDAuMTVDMC4xNSwwLjE1LDAuMjcsMCwwLjM4LDBDNDkuNTksMCw0OS41OSwwLDQ5LjU5LDBMNDkuNTksMHoiLz4mI3hhOwkJPC9nPiYjeGE7CQk8ZyBpZD0ic2hhcGU1MTg1LTQwIj4mI3hhOwkJCTx0aXRsZSBpZD0idGl0bGU5ODIzNCI+U2hlZXQuNTE4NTwvdGl0bGU+JiN4YTsJCQk8cGF0aCBpZD0icGF0aDk4MjM2IiBpbmtzY2FwZTpjb25uZWN0b3ItY3VydmF0dXJlPSIwIiBzdHlsZT0iZmlsbDojRTNFM0UzOyIgZD0iTTQuMzYsMzcuMDNjMC02LjY2LDAtNi42NiwwLTYuNjYgICAgIGMxMC43OSwwLDEwLjc5LDAsMTAuNzksMGMwLDYuNjYsMCw2LjY2LDAsNi42NkM0LjM2LDM3LjAzLDQuMzYsMzcuMDMsNC4zNiwzNy4wM3ogTTQuMzYsMjguMjJjMC02LjY2LDAtNi42NiwwLTYuNjYgICAgIGMxMC43OSwwLDEwLjc5LDAsMTAuNzksMGMwLDYuNjYsMCw2LjY2LDAsNi42NkM0LjM2LDI4LjIyLDQuMzYsMjguMjIsNC4zNiwyOC4yMnogTTQuMzYsMTkuNDFjMC02LjY2LDAtNi42NiwwLTYuNjYgICAgIGMxMC43OSwwLDEwLjc5LDAsMTAuNzksMGMwLDYuNjYsMCw2LjY2LDAsNi42NkM0LjM2LDE5LjQxLDQuMzYsMTkuNDEsNC4zNiwxOS40MXogTTE3LjQxLDE5LjQxYzAtNi42NiwwLTYuNjYsMC02LjY2ICAgICBjMTAuNzksMCwxMC43OSwwLDEwLjc5LDBjMCw2LjY2LDAsNi42NiwwLDYuNjZDMTcuNDEsMTkuNDEsMTcuNDEsMTkuNDEsMTcuNDEsMTkuNDF6IE00Mi44NSw4LjU4QzAsOC41OCwwLDguNTgsMCw4LjU4ICAgICBjMCwyLjAzLDAsMi4wMywwLDIuMDNjMCwzLjk0LDAsMy45NCwwLDMuOTRjMCwzMy4zMiwwLDMzLjMyLDAsMzMuMzJjMCwxLjE4LDAuODQsMi4xNCwxLjkxLDIuMzdjMC4xMiwwLDAuMTIsMCwwLjIzLDAgICAgIGMyLjgsMCwyLjgsMCwyLjgsMGM0LjAxLTQuNCw0LjAxLTQuNCw0LjAxLTQuNGMtNC41OSwwLTQuNTksMC00LjU5LDBjMC02LjY3LDAtNi42NywwLTYuNjdjMTAuNTYsMCwxMC41NiwwLDEwLjU2LDAgICAgIGMyLjQ5LTIuNiwyLjQ5LTIuNiwyLjQ5LTIuNmMwLTYuMiwwLTYuMiwwLTYuMmM1LjYyLDAsNS42MiwwLDUuNjIsMGMxLjk5LTIuMTUsMS45OS0yLjE1LDEuOTktMi4xNWMtNy42MSwwLTcuNjEsMC03LjYxLDAgICAgIGMwLTYuNjYsMC02LjY2LDAtNi42NmMxMC43OSwwLDEwLjc5LDAsMTAuNzksMGMwLDMuMSwwLDMuMSwwLDMuMWMyLjIyLTIuMzcsMi4yMi0yLjM3LDIuMjItMi4zN2MwLTAuNzMsMC0wLjczLDAtMC43MyAgICAgYzAuNjEsMCwwLjYxLDAsMC42MSwwYzEuOTktMi4xNSwxLjk5LTIuMTUsMS45OS0yLjE1Yy0yLjYsMC0yLjYsMC0yLjYsMGMwLTYuNjYsMC02LjY2LDAtNi42NmM4LjU3LDAsOC41NywwLDguNTcsMCAgICAgQzQyLjg1LDguNTgsNDIuODUsOC41OCw0Mi44NSw4LjU4eiIvPiYjeGE7CQk8L2c+JiN4YTsJCTxnIGlkPSJzaGFwZTUxODYtNDIiIHRyYW5zZm9ybT0idHJhbnNsYXRlKDAsLTQxLjY2MzQpIj4mI3hhOwkJCTx0aXRsZSBpZD0idGl0bGU5ODIzOSI+U2hlZXQuNTE4NjwvdGl0bGU+JiN4YTsJCQk8cGF0aCBpZD0icGF0aDk4MjQxIiBpbmtzY2FwZTpjb25uZWN0b3ItY3VydmF0dXJlPSIwIiBzdHlsZT0iZmlsbDojOTlDQzUzOyIgZD0iTTUxLjQyLDQxLjY2Yy00OS4yOCwwLTQ5LjI4LDAtNDkuMjgsMCAgICAgYy0wLjExLDAtMC4yMywwLjEyLTAuMzQsMC4xMkMwLjczLDQyLjAxLDAsNDIuOTMsMCw0My45MmMwLDYuMzIsMCw2LjMyLDAsNi4zMmM0My4xNiwwLDQzLjE2LDAsNDMuMTYsMCAgICAgQzUxLjQyLDQxLjY2LDUxLjQyLDQxLjY2LDUxLjQyLDQxLjY2eiIvPiYjeGE7CQk8L2c+JiN4YTsJCTxnIGlkPSJzaGFwZTUxODctNDQiIHRyYW5zZm9ybT0idHJhbnNsYXRlKDE3LjE0MDcsLTIyLjA1NzEpIj4mI3hhOwkJCTx0aXRsZSBpZD0idGl0bGU5ODI0NCI+U2hlZXQuNTE4NzwvdGl0bGU+JiN4YTsJCQk8cGF0aCBpZD0icGF0aDk4MjQ2IiBpbmtzY2FwZTpjb25uZWN0b3ItY3VydmF0dXJlPSIwIiBzdHlsZT0iZmlsbDojRkZGRkZGOyIgZD0iTTExLjAyLDQzLjVIMHY2Ljc0aDcuODFsMy4yMS0zLjZWNDMuNXoiLz4mI3hhOwkJPC9nPiYjeGE7CQk8ZyBpZD0ic2hhcGU1MTg4LTQ2IiB0cmFuc2Zvcm09InRyYW5zbGF0ZSgxNy4xNDA3LC0zMC42MzQ4KSI+JiN4YTsJCQk8dGl0bGUgaWQ9InRpdGxlOTgyNDkiPlNoZWV0LjUxODg8L3RpdGxlPiYjeGE7CQkJPHBhdGggaWQ9InBhdGg5ODI1MSIgaW5rc2NhcGU6Y29ubmVjdG9yLWN1cnZhdHVyZT0iMCIgc3R5bGU9ImZpbGw6I0ZGRkZGRjsiIGQ9Ik0wLDQzLjV2Ni43NGgxMS4wMlY0My41SDB6Ii8+JiN4YTsJCTwvZz4mI3hhOwkJPGcgaWQ9InNoYXBlNTE4OS00OCIgdHJhbnNmb3JtPSJ0cmFuc2xhdGUoMTcuMTQwNywtMTMuNDc5MykiPiYjeGE7CQkJPHRpdGxlIGlkPSJ0aXRsZTk4MjU0Ij5TaGVldC41MTg5PC90aXRsZT4mI3hhOwkJCTxwYXRoIGlkPSJwYXRoOTgyNTYiIGlua3NjYXBlOmNvbm5lY3Rvci1jdXJ2YXR1cmU9IjAiIHN0eWxlPSJmaWxsOiM5OUNDNTM7IiBkPSJNNi4xMiw0NC4xMUgwdjYuMTNMNi4xMiw0NC4xMXoiLz4mI3hhOwkJPC9nPiYjeGE7CQk8ZyBpZD0ic2hhcGU1MTkwLTUwIiB0cmFuc2Zvcm09InRyYW5zbGF0ZSgzMC42MDg0LC0yNy41NzE0KSI+JiN4YTsJCQk8dGl0bGUgaWQ9InRpdGxlOTgyNTkiPlNoZWV0LjUxOTA8L3RpdGxlPiYjeGE7CQkJPHBhdGggaWQ9InBhdGg5ODI2MSIgaW5rc2NhcGU6Y29ubmVjdG9yLWN1cnZhdHVyZT0iMCIgc3R5bGU9ImZpbGw6I0ZGRkZGRjsiIGQ9Ik0wLjYxLDQ5LjAySDB2MS4yMkwwLjYxLDQ5LjAyeiIvPiYjeGE7CQk8L2c+JiN4YTsJCTxnIGlkPSJzaGFwZTUxOTEtNTIiIHRyYW5zZm9ybT0idHJhbnNsYXRlKDMwLjYwODQsLTMwLjYzNDgpIj4mI3hhOwkJCTx0aXRsZSBpZD0idGl0bGU5ODI2NCI+U2hlZXQuNTE5MTwvdGl0bGU+JiN4YTsJCQk8cGF0aCBpZD0icGF0aDk4MjY2IiBpbmtzY2FwZTpjb25uZWN0b3ItY3VydmF0dXJlPSIwIiBzdHlsZT0iZmlsbDojRkZGRkZGOyIgZD0iTTguNTcsNDMuNUgwdjYuNzRoMi42NEw4LjU3LDQzLjV6Ii8+JiN4YTsJCTwvZz4mI3hhOwkJPGcgaWQ9InNoYXBlNTE5Mi01NCIgdHJhbnNmb3JtPSJ0cmFuc2xhdGUoNC4yODUxNywtMzAuNjM0OCkiPiYjeGE7CQkJPHRpdGxlIGlkPSJ0aXRsZTk4MjY5Ij5TaGVldC41MTkyPC90aXRsZT4mI3hhOwkJCTxwYXRoIGlkPSJwYXRoOTgyNzEiIGlua3NjYXBlOmNvbm5lY3Rvci1jdXJ2YXR1cmU9IjAiIHN0eWxlPSJmaWxsOiNGRkZGRkY7IiBkPSJNMCw0My41djYuNzRoMTEuMDJWNDMuNUgweiIvPiYjeGE7CQk8L2c+JiN4YTsJCTxnIGlkPSJzaGFwZTUxOTMtNTYiIHRyYW5zZm9ybT0idHJhbnNsYXRlKDQuMjg1MTcsLTIyLjA1NzEpIj4mI3hhOwkJCTx0aXRsZSBpZD0idGl0bGU5ODI3NCI+U2hlZXQuNTE5MzwvdGl0bGU+JiN4YTsJCQk8cGF0aCBpZD0icGF0aDk4Mjc2IiBpbmtzY2FwZTpjb25uZWN0b3ItY3VydmF0dXJlPSIwIiBzdHlsZT0iZmlsbDojRkZGRkZGOyIgZD0iTTAsNDMuNXY2Ljc0aDExLjAyVjQzLjVIMHoiLz4mI3hhOwkJPC9nPiYjeGE7CQk8ZyBpZD0ic2hhcGU1MTk0LTU4IiB0cmFuc2Zvcm09InRyYW5zbGF0ZSg0LjI4NTE3LC0xMy40NzkzKSI+JiN4YTsJCQk8dGl0bGUgaWQ9InRpdGxlOTgyNzkiPlNoZWV0LjUxOTQ8L3RpdGxlPiYjeGE7CQkJPHBhdGggaWQ9InBhdGg5ODI4MSIgaW5rc2NhcGU6Y29ubmVjdG9yLWN1cnZhdHVyZT0iMCIgc3R5bGU9ImZpbGw6Izk5Q0M1MzsiIGQ9Ik0wLDQ0LjExdjYuMTNoMTEuMDJ2LTYuMTNIMHoiLz4mI3hhOwkJPC9nPiYjeGE7CQk8ZyBpZD0ic2hhcGU1MTk1LTYwIiB0cmFuc2Zvcm09InRyYW5zbGF0ZSg0LjI4NTE3LC00LjI4ODg4KSI+JiN4YTsJCQk8dGl0bGUgaWQ9InRpdGxlOTgyODQiPlNoZWV0LjUxOTU8L3RpdGxlPiYjeGE7CQkJPHBhdGggaWQ9InBhdGg5ODI4NiIgaW5rc2NhcGU6Y29ubmVjdG9yLWN1cnZhdHVyZT0iMCIgc3R5bGU9ImZpbGw6Izk5Q0M1MzsiIGQ9Ik0xMC40MSw0My41SDB2Ni43NGg0LjUxTDEwLjQxLDQzLjV6Ii8+JiN4YTsJCTwvZz4mI3hhOwk8L2c+JiN4YTs8L2c+JiN4YTs8L3N2Zz4=;" vertex="1" parent="1">
          <mxGeometry x="210" y="214.10000000000002" width="59" height="50" as="geometry" />
        </mxCell>
        <mxCell id="mvVqa1zRDEvd16IM3_gt-5" value="" style="shape=image;verticalLabelPosition=bottom;labelBackgroundColor=#ffffff;verticalAlign=top;aspect=fixed;imageAspect=0;image=data:image/svg+xml,PHN2ZyB4bWxuczpjYz0iaHR0cDovL2NyZWF0aXZlY29tbW9ucy5vcmcvbnMjIiB4bWxuczpkYz0iaHR0cDovL3B1cmwub3JnL2RjL2VsZW1lbnRzLzEuMS8iIHhtbG5zOmlua3NjYXBlPSJodHRwOi8vd3d3Lmlua3NjYXBlLm9yZy9uYW1lc3BhY2VzL2lua3NjYXBlIiB4bWxuczpyZGY9Imh0dHA6Ly93d3cudzMub3JnLzE5OTkvMDIvMjItcmRmLXN5bnRheC1ucyMiIHhtbG5zOnNvZGlwb2RpPSJodHRwOi8vc29kaXBvZGkuc291cmNlZm9yZ2UubmV0L0RURC9zb2RpcG9kaS0wLmR0ZCIgeG1sbnM6c3ZnPSJodHRwOi8vd3d3LnczLm9yZy8yMDAwL3N2ZyIgeG1sbnM9Imh0dHA6Ly93d3cudzMub3JnLzIwMDAvc3ZnIiB4bWxuczp4bGluaz0iaHR0cDovL3d3dy53My5vcmcvMTk5OS94bGluayIgdmVyc2lvbj0iMS4xIiBpZD0ic3ZnOTgyOTIiIGlua3NjYXBlOnZlcnNpb249IjAuOTIuMyAoMjQwNTU0NiwgMjAxOC0wMy0xMSkiIHNvZGlwb2RpOmRvY25hbWU9InN0b3JhZ2VfcmVzb3VyY2VfZ3JvdXAuc3ZnIiB4PSIwcHgiIHk9IjBweCIgdmlld0JveD0iMCAwIDU4Ljc3IDUwLjI0IiBzdHlsZT0iZW5hYmxlLWJhY2tncm91bmQ6bmV3IDAgMCA1OC43NyA1MC4yNDsiIHhtbDpzcGFjZT0icHJlc2VydmUiPiYjeGE7PHNvZGlwb2RpOm5hbWVkdmlldyBib3JkZXJjb2xvcj0iIzY2NjY2NiIgYm9yZGVyb3BhY2l0eT0iMSIgZml0LW1hcmdpbi1ib3R0b209IjAiIGZpdC1tYXJnaW4tbGVmdD0iMCIgZml0LW1hcmdpbi1yaWdodD0iMCIgZml0LW1hcmdpbi10b3A9IjAiIGdyaWR0b2xlcmFuY2U9IjEwIiBndWlkZXRvbGVyYW5jZT0iMTAiIGlkPSJuYW1lZHZpZXc5ODI5NCIgaW5rc2NhcGU6Y3VycmVudC1sYXllcj0ic3ZnOTgyOTIiIGlua3NjYXBlOmN4PSI0My44NTM2MjciIGlua3NjYXBlOmN5PSIyNS40NDM1OCIgaW5rc2NhcGU6cGFnZW9wYWNpdHk9IjAiIGlua3NjYXBlOnBhZ2VzaGFkb3c9IjIiIGlua3NjYXBlOndpbmRvdy1oZWlnaHQ9IjEwMTciIGlua3NjYXBlOndpbmRvdy1tYXhpbWl6ZWQ9IjEiIGlua3NjYXBlOndpbmRvdy13aWR0aD0iMTkyMCIgaW5rc2NhcGU6d2luZG93LXg9Ii04IiBpbmtzY2FwZTp3aW5kb3cteT0iLTgiIGlua3NjYXBlOnpvb209IjkuMTUxNzgxMSIgb2JqZWN0dG9sZXJhbmNlPSIxMCIgcGFnZWNvbG9yPSIjZmZmZmZmIiBzaG93Z3JpZD0iZmFsc2UiPiYjeGE7CTwvc29kaXBvZGk6bmFtZWR2aWV3PiYjeGE7PGcgaWQ9Imc5ODI5MCIgdHJhbnNmb3JtPSJ0cmFuc2xhdGUoMCwwLjAwMzM0NTMxKSI+JiN4YTsJPHRpdGxlIGlkPSJ0aXRsZTk4MTM1Ij5QYWdlLTE8L3RpdGxlPiYjeGE7CTxnIGlkPSJncm91cDUxNjUtMSI+JiN4YTsJCTx0aXRsZSBpZD0idGl0bGU5ODEzNyI+U3RvcmFnZSBSZXNvdXJjZSBHcm91cDwvdGl0bGU+JiN4YTsJCTxnIGlkPSJzaGFwZTUxNjYtMiI+JiN4YTsJCQk8dGl0bGUgaWQ9InRpdGxlOTgxMzkiPlNoZWV0LjUxNjY8L3RpdGxlPiYjeGE7CQkJPHBhdGggaWQ9InBhdGg5ODE0MSIgaW5rc2NhcGU6Y29ubmVjdG9yLWN1cnZhdHVyZT0iMCIgc3R5bGU9ImZpbGw6I0UwRTBFMDsiIGQ9Ik0wLDQ3Ljk4YzAsMS4zNCwwLjk2LDIuMjYsMi4xNCwyLjI2ICAgICBjNTQuNDEsMCw1NC40MSwwLDU0LjQxLDBjMS4zLDAsMi4yMi0wLjkyLDIuMjItMi4yNmMwLTM5LjQsMC0zOS40LDAtMzkuNEMwLDguNTgsMCw4LjU4LDAsOC41OEMwLDQ3Ljk4LDAsNDcuOTgsMCw0Ny45OHoiLz4mI3hhOwkJPC9nPiYjeGE7CQk8ZyBpZD0ic2hhcGU1MTY3LTQiIHRyYW5zZm9ybT0idHJhbnNsYXRlKDAsLTQxLjY2MzQpIj4mI3hhOwkJCTx0aXRsZSBpZD0idGl0bGU5ODE0NCI+U2hlZXQuNTE2NzwvdGl0bGU+JiN4YTsJCQk8cGF0aCBpZD0icGF0aDk4MTQ2IiBpbmtzY2FwZTpjb25uZWN0b3ItY3VydmF0dXJlPSIwIiBzdHlsZT0iZmlsbDojOERDNjNGOyIgZD0iTTU2LjY2LDQxLjY2Yy01NC41MiwwLTU0LjUyLDAtNTQuNTIsMCAgICAgQzAuOTYsNDEuNjYsMCw0Mi43LDAsNDMuODFjMCw2LjQzLDAsNi40MywwLDYuNDNjNTguNzcsMCw1OC43NywwLDU4Ljc3LDBjMC02LjQzLDAtNi40MywwLTYuNDMgICAgIEM1OC43Nyw0Mi43LDU3Ljg1LDQxLjY2LDU2LjY2LDQxLjY2eiIvPiYjeGE7CQk8L2c+JiN4YTsJCTxnIGlkPSJzaGFwZTUxNjgtNiIgdHJhbnNmb3JtPSJ0cmFuc2xhdGUoMTcuMTQwNywtMjIuMDU3MSkiPiYjeGE7CQkJPHRpdGxlIGlkPSJ0aXRsZTk4MTQ5Ij5TaGVldC41MTY4PC90aXRsZT4mI3hhOwkJCTxwYXRoIGlkPSJwYXRoOTgxNTEiIGlua3NjYXBlOmNvbm5lY3Rvci1jdXJ2YXR1cmU9IjAiIHN0eWxlPSJmaWxsOiNGRkZGRkY7IiBkPSJNMCw0My41djYuNzRoMTEuMDJWNDMuNUgweiIvPiYjeGE7CQk8L2c+JiN4YTsJCTxnIGlkPSJzaGFwZTUxNjktOCIgdHJhbnNmb3JtPSJ0cmFuc2xhdGUoMTcuMTQwNywtMzAuNjM0OCkiPiYjeGE7CQkJPHRpdGxlIGlkPSJ0aXRsZTk4MTU0Ij5TaGVldC41MTY5PC90aXRsZT4mI3hhOwkJCTxwYXRoIGlkPSJwYXRoOTgxNTYiIGlua3NjYXBlOmNvbm5lY3Rvci1jdXJ2YXR1cmU9IjAiIHN0eWxlPSJmaWxsOiNGRkZGRkY7IiBkPSJNMCw0My41djYuNzRoMTEuMDJWNDMuNUgweiIvPiYjeGE7CQk8L2c+JiN4YTsJCTxnIGlkPSJzaGFwZTUxNzAtMTAiIHRyYW5zZm9ybT0idHJhbnNsYXRlKDE3LjE0MDcsLTEzLjQ3OTMpIj4mI3hhOwkJCTx0aXRsZSBpZD0idGl0bGU5ODE1OSI+U2hlZXQuNTE3MDwvdGl0bGU+JiN4YTsJCQk8cGF0aCBpZD0icGF0aDk4MTYxIiBpbmtzY2FwZTpjb25uZWN0b3ItY3VydmF0dXJlPSIwIiBzdHlsZT0iZmlsbDojOERDNjNGOyIgZD0iTTAsNDQuMTF2Ni4xM2gxMS4wMnYtNi4xM0gweiIvPiYjeGE7CQk8L2c+JiN4YTsJCTxnIGlkPSJzaGFwZTUxNzEtMTIiIHRyYW5zZm9ybT0idHJhbnNsYXRlKDMwLjYwODQsLTEzLjQ3OTMpIj4mI3hhOwkJCTx0aXRsZSBpZD0idGl0bGU5ODE2NCI+U2hlZXQuNTE3MTwvdGl0bGU+JiN4YTsJCQk8cGF0aCBpZD0icGF0aDk4MTY2IiBpbmtzY2FwZTpjb25uZWN0b3ItY3VydmF0dXJlPSIwIiBzdHlsZT0iZmlsbDojOERDNjNGOyIgZD0iTTAsNDQuMTF2Ni4xM2gxMS4wMnYtNi4xM0gweiIvPiYjeGE7CQk8L2c+JiN4YTsJCTxnIGlkPSJzaGFwZTUxNzItMTQiIHRyYW5zZm9ybT0idHJhbnNsYXRlKDMwLjYwODQsLTIyLjA1NzEpIj4mI3hhOwkJCTx0aXRsZSBpZD0idGl0bGU5ODE2OSI+U2hlZXQuNTE3MjwvdGl0bGU+JiN4YTsJCQk8cGF0aCBpZD0icGF0aDk4MTcxIiBpbmtzY2FwZTpjb25uZWN0b3ItY3VydmF0dXJlPSIwIiBzdHlsZT0iZmlsbDojRkZGRkZGOyIgZD0iTTAsNDMuNXY2Ljc0aDExLjAyVjQzLjVIMHoiLz4mI3hhOwkJPC9nPiYjeGE7CQk8ZyBpZD0ic2hhcGU1MTczLTE2IiB0cmFuc2Zvcm09InRyYW5zbGF0ZSgzMC42MDg0LC0zMC42MzQ4KSI+JiN4YTsJCQk8dGl0bGUgaWQ9InRpdGxlOTgxNzQiPlNoZWV0LjUxNzM8L3RpdGxlPiYjeGE7CQkJPHBhdGggaWQ9InBhdGg5ODE3NiIgaW5rc2NhcGU6Y29ubmVjdG9yLWN1cnZhdHVyZT0iMCIgc3R5bGU9ImZpbGw6I0ZGRkZGRjsiIGQ9Ik0wLDQzLjV2Ni43NGgxMS4wMlY0My41SDB6Ii8+JiN4YTsJCTwvZz4mI3hhOwkJPGcgaWQ9InNoYXBlNTE3NC0xOCIgdHJhbnNmb3JtPSJ0cmFuc2xhdGUoNC4yODUxNywtMzAuNjM0OCkiPiYjeGE7CQkJPHRpdGxlIGlkPSJ0aXRsZTk4MTc5Ij5TaGVldC41MTc0PC90aXRsZT4mI3hhOwkJCTxwYXRoIGlkPSJwYXRoOTgxODEiIGlua3NjYXBlOmNvbm5lY3Rvci1jdXJ2YXR1cmU9IjAiIHN0eWxlPSJmaWxsOiNGRkZGRkY7IiBkPSJNMCw0My41djYuNzRoMTEuMDJWNDMuNUgweiIvPiYjeGE7CQk8L2c+JiN4YTsJCTxnIGlkPSJzaGFwZTUxNzUtMjAiIHRyYW5zZm9ybT0idHJhbnNsYXRlKDQuMjg1MTcsLTIyLjA1NzEpIj4mI3hhOwkJCTx0aXRsZSBpZD0idGl0bGU5ODE4NCI+U2hlZXQuNTE3NTwvdGl0bGU+JiN4YTsJCQk8cGF0aCBpZD0icGF0aDk4MTg2IiBpbmtzY2FwZTpjb25uZWN0b3ItY3VydmF0dXJlPSIwIiBzdHlsZT0iZmlsbDojRkZGRkZGOyIgZD0iTTAsNDMuNXY2Ljc0aDExLjAyVjQzLjVIMHoiLz4mI3hhOwkJPC9nPiYjeGE7CQk8ZyBpZD0ic2hhcGU1MTc2LTIyIiB0cmFuc2Zvcm09InRyYW5zbGF0ZSg0LjI4NTE3LC0xMy40NzkzKSI+JiN4YTsJCQk8dGl0bGUgaWQ9InRpdGxlOTgxODkiPlNoZWV0LjUxNzY8L3RpdGxlPiYjeGE7CQkJPHBhdGggaWQ9InBhdGg5ODE5MSIgaW5rc2NhcGU6Y29ubmVjdG9yLWN1cnZhdHVyZT0iMCIgc3R5bGU9ImZpbGw6IzhEQzYzRjsiIGQ9Ik0wLDQ0LjExdjYuMTNoMTEuMDJ2LTYuMTNIMHoiLz4mI3hhOwkJPC9nPiYjeGE7CQk8ZyBpZD0ic2hhcGU1MTc3LTI0IiB0cmFuc2Zvcm09InRyYW5zbGF0ZSg0LjI4NTE3LC00LjI4ODg4KSI+JiN4YTsJCQk8dGl0bGUgaWQ9InRpdGxlOTgxOTQiPlNoZWV0LjUxNzc8L3RpdGxlPiYjeGE7CQkJPHBhdGggaWQ9InBhdGg5ODE5NiIgaW5rc2NhcGU6Y29ubmVjdG9yLWN1cnZhdHVyZT0iMCIgc3R5bGU9ImZpbGw6IzhEQzYzRjsiIGQ9Ik0wLDQzLjV2Ni43NGgxMS4wMlY0My41SDB6Ii8+JiN4YTsJCTwvZz4mI3hhOwkJPGcgaWQ9InNoYXBlNTE3OC0yNiIgdHJhbnNmb3JtPSJ0cmFuc2xhdGUoMTcuMTQwNywtNC4yODg4OCkiPiYjeGE7CQkJPHRpdGxlIGlkPSJ0aXRsZTk4MTk5Ij5TaGVldC41MTc4PC90aXRsZT4mI3hhOwkJCTxwYXRoIGlkPSJwYXRoOTgyMDEiIGlua3NjYXBlOmNvbm5lY3Rvci1jdXJ2YXR1cmU9IjAiIHN0eWxlPSJmaWxsOiM4REM2M0Y7IiBkPSJNMCw0My41djYuNzRoMTEuMDJWNDMuNUgweiIvPiYjeGE7CQk8L2c+JiN4YTsJCTxnIGlkPSJzaGFwZTUxNzktMjgiIHRyYW5zZm9ybT0idHJhbnNsYXRlKDMwLjYwODQsLTQuMjg4ODgpIj4mI3hhOwkJCTx0aXRsZSBpZD0idGl0bGU5ODIwNCI+U2hlZXQuNTE3OTwvdGl0bGU+JiN4YTsJCQk8cGF0aCBpZD0icGF0aDk4MjA2IiBpbmtzY2FwZTpjb25uZWN0b3ItY3VydmF0dXJlPSIwIiBzdHlsZT0iZmlsbDojOERDNjNGOyIgZD0iTTAsNDMuNXY2Ljc0aDExLjAyVjQzLjVIMHoiLz4mI3hhOwkJPC9nPiYjeGE7CQk8ZyBpZD0ic2hhcGU1MTgwLTMwIiB0cmFuc2Zvcm09InRyYW5zbGF0ZSg0My40NjM5LC0xMy40NzkzKSI+JiN4YTsJCQk8dGl0bGUgaWQ9InRpdGxlOTgyMDkiPlNoZWV0LjUxODA8L3RpdGxlPiYjeGE7CQkJPHBhdGggaWQ9InBhdGg5ODIxMSIgaW5rc2NhcGU6Y29ubmVjdG9yLWN1cnZhdHVyZT0iMCIgc3R5bGU9ImZpbGw6IzhEQzYzRjsiIGQ9Ik0wLDQ0LjExdjYuMTNoMTEuMDJ2LTYuMTNIMHoiLz4mI3hhOwkJPC9nPiYjeGE7CQk8ZyBpZD0ic2hhcGU1MTgxLTMyIiB0cmFuc2Zvcm09InRyYW5zbGF0ZSg0My40NjM5LC0yMi4wNTcxKSI+JiN4YTsJCQk8dGl0bGUgaWQ9InRpdGxlOTgyMTQiPlNoZWV0LjUxODE8L3RpdGxlPiYjeGE7CQkJPHBhdGggaWQ9InBhdGg5ODIxNiIgaW5rc2NhcGU6Y29ubmVjdG9yLWN1cnZhdHVyZT0iMCIgc3R5bGU9ImZpbGw6I0ZGRkZGRjsiIGQ9Ik0wLDQzLjV2Ni43NGgxMS4wMlY0My41SDB6Ii8+JiN4YTsJCTwvZz4mI3hhOwkJPGcgaWQ9InNoYXBlNTE4Mi0zNCIgdHJhbnNmb3JtPSJ0cmFuc2xhdGUoNDMuNDYzOSwtMzAuNjM0OCkiPiYjeGE7CQkJPHRpdGxlIGlkPSJ0aXRsZTk4MjE5Ij5TaGVldC41MTgyPC90aXRsZT4mI3hhOwkJCTxwYXRoIGlkPSJwYXRoOTgyMjEiIGlua3NjYXBlOmNvbm5lY3Rvci1jdXJ2YXR1cmU9IjAiIHN0eWxlPSJmaWxsOiNGRkZGRkY7IiBkPSJNMCw0My41djYuNzRoMTEuMDJWNDMuNUgweiIvPiYjeGE7CQk8L2c+JiN4YTsJCTxnIGlkPSJzaGFwZTUxODMtMzYiIHRyYW5zZm9ybT0idHJhbnNsYXRlKDQzLjQ2MzksLTQuMjg4ODgpIj4mI3hhOwkJCTx0aXRsZSBpZD0idGl0bGU5ODIyNCI+U2hlZXQuNTE4MzwvdGl0bGU+JiN4YTsJCQk8cGF0aCBpZD0icGF0aDk4MjI2IiBpbmtzY2FwZTpjb25uZWN0b3ItY3VydmF0dXJlPSIwIiBzdHlsZT0iZmlsbDojOERDNjNGOyIgZD0iTTAsNDMuNXY2Ljc0aDExLjAyVjQzLjVIMHoiLz4mI3hhOwkJPC9nPiYjeGE7CQk8ZyBpZD0ic2hhcGU1MTg0LTM4IiB0cmFuc2Zvcm09InRyYW5zbGF0ZSgxLjgzNjUpIj4mI3hhOwkJCTx0aXRsZSBpZD0idGl0bGU5ODIyOSI+U2hlZXQuNTE4NDwvdGl0bGU+JiN4YTsJCQk8cGF0aCBpZD0icGF0aDk4MjMxIiBpbmtzY2FwZTpjb25uZWN0b3ItY3VydmF0dXJlPSIwIiBzdHlsZT0iZmlsbDojMUM0MjdGOyIgZD0iTTAuMTUsNTAuMjRjMC4xMiwwLDAuMjMsMCwwLjQ2LDAgICAgIGMyLjQ5LDAsMi40OSwwLDIuNDksMGMwLjExLDAsMC4xMSwwLDAuMTEsMGMtMi44MywwLTIuODMsMC0yLjgzLDBDMC4yNyw1MC4yNCwwLjI3LDUwLjI0LDAuMTUsNTAuMjR6IE00OS41OSwwICAgICBDMC42MSwwLDAuNjEsMCwwLjYxLDBDMC4zOCwwLDAuMjcsMCwwLDAuMTVDMC4xNSwwLjE1LDAuMjcsMCwwLjM4LDBDNDkuNTksMCw0OS41OSwwLDQ5LjU5LDBMNDkuNTksMHoiLz4mI3hhOwkJPC9nPiYjeGE7CQk8ZyBpZD0ic2hhcGU1MTg1LTQwIj4mI3hhOwkJCTx0aXRsZSBpZD0idGl0bGU5ODIzNCI+U2hlZXQuNTE4NTwvdGl0bGU+JiN4YTsJCQk8cGF0aCBpZD0icGF0aDk4MjM2IiBpbmtzY2FwZTpjb25uZWN0b3ItY3VydmF0dXJlPSIwIiBzdHlsZT0iZmlsbDojRTNFM0UzOyIgZD0iTTQuMzYsMzcuMDNjMC02LjY2LDAtNi42NiwwLTYuNjYgICAgIGMxMC43OSwwLDEwLjc5LDAsMTAuNzksMGMwLDYuNjYsMCw2LjY2LDAsNi42NkM0LjM2LDM3LjAzLDQuMzYsMzcuMDMsNC4zNiwzNy4wM3ogTTQuMzYsMjguMjJjMC02LjY2LDAtNi42NiwwLTYuNjYgICAgIGMxMC43OSwwLDEwLjc5LDAsMTAuNzksMGMwLDYuNjYsMCw2LjY2LDAsNi42NkM0LjM2LDI4LjIyLDQuMzYsMjguMjIsNC4zNiwyOC4yMnogTTQuMzYsMTkuNDFjMC02LjY2LDAtNi42NiwwLTYuNjYgICAgIGMxMC43OSwwLDEwLjc5LDAsMTAuNzksMGMwLDYuNjYsMCw2LjY2LDAsNi42NkM0LjM2LDE5LjQxLDQuMzYsMTkuNDEsNC4zNiwxOS40MXogTTE3LjQxLDE5LjQxYzAtNi42NiwwLTYuNjYsMC02LjY2ICAgICBjMTAuNzksMCwxMC43OSwwLDEwLjc5LDBjMCw2LjY2LDAsNi42NiwwLDYuNjZDMTcuNDEsMTkuNDEsMTcuNDEsMTkuNDEsMTcuNDEsMTkuNDF6IE00Mi44NSw4LjU4QzAsOC41OCwwLDguNTgsMCw4LjU4ICAgICBjMCwyLjAzLDAsMi4wMywwLDIuMDNjMCwzLjk0LDAsMy45NCwwLDMuOTRjMCwzMy4zMiwwLDMzLjMyLDAsMzMuMzJjMCwxLjE4LDAuODQsMi4xNCwxLjkxLDIuMzdjMC4xMiwwLDAuMTIsMCwwLjIzLDAgICAgIGMyLjgsMCwyLjgsMCwyLjgsMGM0LjAxLTQuNCw0LjAxLTQuNCw0LjAxLTQuNGMtNC41OSwwLTQuNTksMC00LjU5LDBjMC02LjY3LDAtNi42NywwLTYuNjdjMTAuNTYsMCwxMC41NiwwLDEwLjU2LDAgICAgIGMyLjQ5LTIuNiwyLjQ5LTIuNiwyLjQ5LTIuNmMwLTYuMiwwLTYuMiwwLTYuMmM1LjYyLDAsNS42MiwwLDUuNjIsMGMxLjk5LTIuMTUsMS45OS0yLjE1LDEuOTktMi4xNWMtNy42MSwwLTcuNjEsMC03LjYxLDAgICAgIGMwLTYuNjYsMC02LjY2LDAtNi42NmMxMC43OSwwLDEwLjc5LDAsMTAuNzksMGMwLDMuMSwwLDMuMSwwLDMuMWMyLjIyLTIuMzcsMi4yMi0yLjM3LDIuMjItMi4zN2MwLTAuNzMsMC0wLjczLDAtMC43MyAgICAgYzAuNjEsMCwwLjYxLDAsMC42MSwwYzEuOTktMi4xNSwxLjk5LTIuMTUsMS45OS0yLjE1Yy0yLjYsMC0yLjYsMC0yLjYsMGMwLTYuNjYsMC02LjY2LDAtNi42NmM4LjU3LDAsOC41NywwLDguNTcsMCAgICAgQzQyLjg1LDguNTgsNDIuODUsOC41OCw0Mi44NSw4LjU4eiIvPiYjeGE7CQk8L2c+JiN4YTsJCTxnIGlkPSJzaGFwZTUxODYtNDIiIHRyYW5zZm9ybT0idHJhbnNsYXRlKDAsLTQxLjY2MzQpIj4mI3hhOwkJCTx0aXRsZSBpZD0idGl0bGU5ODIzOSI+U2hlZXQuNTE4NjwvdGl0bGU+JiN4YTsJCQk8cGF0aCBpZD0icGF0aDk4MjQxIiBpbmtzY2FwZTpjb25uZWN0b3ItY3VydmF0dXJlPSIwIiBzdHlsZT0iZmlsbDojOTlDQzUzOyIgZD0iTTUxLjQyLDQxLjY2Yy00OS4yOCwwLTQ5LjI4LDAtNDkuMjgsMCAgICAgYy0wLjExLDAtMC4yMywwLjEyLTAuMzQsMC4xMkMwLjczLDQyLjAxLDAsNDIuOTMsMCw0My45MmMwLDYuMzIsMCw2LjMyLDAsNi4zMmM0My4xNiwwLDQzLjE2LDAsNDMuMTYsMCAgICAgQzUxLjQyLDQxLjY2LDUxLjQyLDQxLjY2LDUxLjQyLDQxLjY2eiIvPiYjeGE7CQk8L2c+JiN4YTsJCTxnIGlkPSJzaGFwZTUxODctNDQiIHRyYW5zZm9ybT0idHJhbnNsYXRlKDE3LjE0MDcsLTIyLjA1NzEpIj4mI3hhOwkJCTx0aXRsZSBpZD0idGl0bGU5ODI0NCI+U2hlZXQuNTE4NzwvdGl0bGU+JiN4YTsJCQk8cGF0aCBpZD0icGF0aDk4MjQ2IiBpbmtzY2FwZTpjb25uZWN0b3ItY3VydmF0dXJlPSIwIiBzdHlsZT0iZmlsbDojRkZGRkZGOyIgZD0iTTExLjAyLDQzLjVIMHY2Ljc0aDcuODFsMy4yMS0zLjZWNDMuNXoiLz4mI3hhOwkJPC9nPiYjeGE7CQk8ZyBpZD0ic2hhcGU1MTg4LTQ2IiB0cmFuc2Zvcm09InRyYW5zbGF0ZSgxNy4xNDA3LC0zMC42MzQ4KSI+JiN4YTsJCQk8dGl0bGUgaWQ9InRpdGxlOTgyNDkiPlNoZWV0LjUxODg8L3RpdGxlPiYjeGE7CQkJPHBhdGggaWQ9InBhdGg5ODI1MSIgaW5rc2NhcGU6Y29ubmVjdG9yLWN1cnZhdHVyZT0iMCIgc3R5bGU9ImZpbGw6I0ZGRkZGRjsiIGQ9Ik0wLDQzLjV2Ni43NGgxMS4wMlY0My41SDB6Ii8+JiN4YTsJCTwvZz4mI3hhOwkJPGcgaWQ9InNoYXBlNTE4OS00OCIgdHJhbnNmb3JtPSJ0cmFuc2xhdGUoMTcuMTQwNywtMTMuNDc5MykiPiYjeGE7CQkJPHRpdGxlIGlkPSJ0aXRsZTk4MjU0Ij5TaGVldC41MTg5PC90aXRsZT4mI3hhOwkJCTxwYXRoIGlkPSJwYXRoOTgyNTYiIGlua3NjYXBlOmNvbm5lY3Rvci1jdXJ2YXR1cmU9IjAiIHN0eWxlPSJmaWxsOiM5OUNDNTM7IiBkPSJNNi4xMiw0NC4xMUgwdjYuMTNMNi4xMiw0NC4xMXoiLz4mI3hhOwkJPC9nPiYjeGE7CQk8ZyBpZD0ic2hhcGU1MTkwLTUwIiB0cmFuc2Zvcm09InRyYW5zbGF0ZSgzMC42MDg0LC0yNy41NzE0KSI+JiN4YTsJCQk8dGl0bGUgaWQ9InRpdGxlOTgyNTkiPlNoZWV0LjUxOTA8L3RpdGxlPiYjeGE7CQkJPHBhdGggaWQ9InBhdGg5ODI2MSIgaW5rc2NhcGU6Y29ubmVjdG9yLWN1cnZhdHVyZT0iMCIgc3R5bGU9ImZpbGw6I0ZGRkZGRjsiIGQ9Ik0wLjYxLDQ5LjAySDB2MS4yMkwwLjYxLDQ5LjAyeiIvPiYjeGE7CQk8L2c+JiN4YTsJCTxnIGlkPSJzaGFwZTUxOTEtNTIiIHRyYW5zZm9ybT0idHJhbnNsYXRlKDMwLjYwODQsLTMwLjYzNDgpIj4mI3hhOwkJCTx0aXRsZSBpZD0idGl0bGU5ODI2NCI+U2hlZXQuNTE5MTwvdGl0bGU+JiN4YTsJCQk8cGF0aCBpZD0icGF0aDk4MjY2IiBpbmtzY2FwZTpjb25uZWN0b3ItY3VydmF0dXJlPSIwIiBzdHlsZT0iZmlsbDojRkZGRkZGOyIgZD0iTTguNTcsNDMuNUgwdjYuNzRoMi42NEw4LjU3LDQzLjV6Ii8+JiN4YTsJCTwvZz4mI3hhOwkJPGcgaWQ9InNoYXBlNTE5Mi01NCIgdHJhbnNmb3JtPSJ0cmFuc2xhdGUoNC4yODUxNywtMzAuNjM0OCkiPiYjeGE7CQkJPHRpdGxlIGlkPSJ0aXRsZTk4MjY5Ij5TaGVldC41MTkyPC90aXRsZT4mI3hhOwkJCTxwYXRoIGlkPSJwYXRoOTgyNzEiIGlua3NjYXBlOmNvbm5lY3Rvci1jdXJ2YXR1cmU9IjAiIHN0eWxlPSJmaWxsOiNGRkZGRkY7IiBkPSJNMCw0My41djYuNzRoMTEuMDJWNDMuNUgweiIvPiYjeGE7CQk8L2c+JiN4YTsJCTxnIGlkPSJzaGFwZTUxOTMtNTYiIHRyYW5zZm9ybT0idHJhbnNsYXRlKDQuMjg1MTcsLTIyLjA1NzEpIj4mI3hhOwkJCTx0aXRsZSBpZD0idGl0bGU5ODI3NCI+U2hlZXQuNTE5MzwvdGl0bGU+JiN4YTsJCQk8cGF0aCBpZD0icGF0aDk4Mjc2IiBpbmtzY2FwZTpjb25uZWN0b3ItY3VydmF0dXJlPSIwIiBzdHlsZT0iZmlsbDojRkZGRkZGOyIgZD0iTTAsNDMuNXY2Ljc0aDExLjAyVjQzLjVIMHoiLz4mI3hhOwkJPC9nPiYjeGE7CQk8ZyBpZD0ic2hhcGU1MTk0LTU4IiB0cmFuc2Zvcm09InRyYW5zbGF0ZSg0LjI4NTE3LC0xMy40NzkzKSI+JiN4YTsJCQk8dGl0bGUgaWQ9InRpdGxlOTgyNzkiPlNoZWV0LjUxOTQ8L3RpdGxlPiYjeGE7CQkJPHBhdGggaWQ9InBhdGg5ODI4MSIgaW5rc2NhcGU6Y29ubmVjdG9yLWN1cnZhdHVyZT0iMCIgc3R5bGU9ImZpbGw6Izk5Q0M1MzsiIGQ9Ik0wLDQ0LjExdjYuMTNoMTEuMDJ2LTYuMTNIMHoiLz4mI3hhOwkJPC9nPiYjeGE7CQk8ZyBpZD0ic2hhcGU1MTk1LTYwIiB0cmFuc2Zvcm09InRyYW5zbGF0ZSg0LjI4NTE3LC00LjI4ODg4KSI+JiN4YTsJCQk8dGl0bGUgaWQ9InRpdGxlOTgyODQiPlNoZWV0LjUxOTU8L3RpdGxlPiYjeGE7CQkJPHBhdGggaWQ9InBhdGg5ODI4NiIgaW5rc2NhcGU6Y29ubmVjdG9yLWN1cnZhdHVyZT0iMCIgc3R5bGU9ImZpbGw6Izk5Q0M1MzsiIGQ9Ik0xMC40MSw0My41SDB2Ni43NGg0LjUxTDEwLjQxLDQzLjV6Ii8+JiN4YTsJCTwvZz4mI3hhOwk8L2c+JiN4YTs8L2c+JiN4YTs8L3N2Zz4=;" vertex="1" parent="1">
          <mxGeometry x="210" y="294.1" width="59" height="50" as="geometry" />
        </mxCell>
        <mxCell id="mvVqa1zRDEvd16IM3_gt-6" value="&lt;div style=&quot;box-sizing: border-box; font-size: 14px; font-style: normal; font-weight: 400; letter-spacing: normal; text-indent: 0px; text-transform: none; word-spacing: 0px;&quot;&gt;RDMELAB03.CORP_Modelling.[dbo].[NonFinancialRiskdriver_JO_F7]&lt;/div&gt;" style="text;whiteSpace=wrap;html=1;" vertex="1" parent="1">
          <mxGeometry x="290" y="139.10000000000002" width="260" height="47.5" as="geometry" />
        </mxCell>
        <mxCell id="mvVqa1zRDEvd16IM3_gt-7" value="&lt;div style=&quot;box-sizing: border-box; font-size: 14px; font-style: normal; font-weight: 400; letter-spacing: normal; text-indent: 0px; text-transform: none; word-spacing: 0px;&quot;&gt;RDMELAB03.CORP_Modelling.[PD_modelling].[DTO_F7]&lt;/div&gt;" style="text;whiteSpace=wrap;html=1;" vertex="1" parent="1">
          <mxGeometry x="290" y="224.10000000000002" width="240" height="30" as="geometry" />
        </mxCell>
        <mxCell id="mvVqa1zRDEvd16IM3_gt-8" value="&lt;div style=&quot;box-sizing: border-box ; font-size: 14px ; font-style: normal ; letter-spacing: normal ; text-indent: 0px ; text-transform: none ; word-spacing: 0px&quot;&gt;RDMELAB03.CORP_Freeze_7.[Model].[vw_JointObligorAndFinancialsMonthlyHistory]&lt;/div&gt;" style="text;whiteSpace=wrap;html=1;" vertex="1" parent="1">
          <mxGeometry x="290" y="294.1" width="350" height="40" as="geometry" />
        </mxCell>
        <mxCell id="mvVqa1zRDEvd16IM3_gt-11" value="RDME03 server" style="text;whiteSpace=wrap;html=1;" vertex="1" parent="1">
          <mxGeometry x="45" y="280" width="100" height="30" as="geometry" />
        </mxCell>
      </root>
    </mxGraphModel>
  </diagram>
</mxfile>
